<svg xmlns="http://www.w3.org/2000/svg" xmlns:xlink="http://www.w3.org/1999/xlink" width="500" zoomAndPan="magnify" viewBox="0 0 375 374.999991" height="500" preserveAspectRatio="xMidYMid meet" version="1.0"><defs><clipPath id="e9e2bc6351"><path d="M 58.191406 58.191406 L 316.941406 58.191406 L 316.941406 316.941406 L 58.191406 316.941406 Z M 58.191406 58.191406 " clip-rule="nonzero"/></clipPath><clipPath id="d7ec71abe1"><path d="M 102.277344 119.359375 L 272.527344 119.359375 L 272.527344 147.859375 L 102.277344 147.859375 Z M 102.277344 119.359375 " clip-rule="nonzero"/></clipPath><clipPath id="d640d87ffa"><path d="M 173.335938 119.542969 L 201.835938 119.542969 L 201.835938 289.792969 L 173.335938 289.792969 Z M 173.335938 119.542969 " clip-rule="nonzero"/></clipPath><clipPath id="701ff50161"><path d="M 215.359375 160.914062 L 272.722656 160.914062 L 272.722656 179.191406 L 215.359375 179.191406 Z M 215.359375 160.914062 " clip-rule="nonzero"/></clipPath><clipPath id="2e57ce0803"><path d="M 215.359375 165.042969 L 227.492188 165.042969 L 227.492188 198.253906 L 215.359375 198.253906 Z M 215.359375 165.042969 " clip-rule="nonzero"/></clipPath><clipPath id="6853dd33a9"><path d="M 215.359375 194.125 L 272.722656 194.125 L 272.722656 206.257812 L 215.359375 206.257812 Z M 215.359375 194.125 " clip-rule="nonzero"/></clipPath><clipPath id="9b84843a74"><path d="M 260.589844 200.191406 L 272.722656 200.191406 L 272.722656 233.402344 L 260.589844 233.402344 Z M 260.589844 200.191406 " clip-rule="nonzero"/></clipPath><clipPath id="4860fea32f"><path d="M 215.359375 221.257812 L 272.722656 221.257812 L 272.722656 239.390625 L 215.359375 239.390625 Z M 215.359375 221.257812 " clip-rule="nonzero"/></clipPath><clipPath id="6798d20b02"><path d="M 68.738281 164.886719 L 159.832031 164.886719 L 159.832031 175.21875 L 68.738281 175.21875 Z M 68.738281 164.886719 " clip-rule="nonzero"/></clipPath><clipPath id="1672c48c49"><path d="M 68.738281 183.792969 L 159.832031 183.792969 L 159.832031 194.125 L 68.738281 194.125 Z M 68.738281 183.792969 " clip-rule="nonzero"/></clipPath><clipPath id="01ad07a620"><path d="M 68.738281 202.375 L 159.832031 202.375 L 159.832031 212.707031 L 68.738281 212.707031 Z M 68.738281 202.375 " clip-rule="nonzero"/></clipPath><clipPath id="470c1b8ea7"><path d="M 149.5 230.316406 L 159.832031 230.316406 L 159.832031 310.445312 L 149.5 310.445312 Z M 149.5 230.316406 " clip-rule="nonzero"/></clipPath><clipPath id="1ae45f438c"><path d="M 100.15625 219.761719 L 138.40625 219.761719 L 138.40625 258.011719 L 100.15625 258.011719 Z M 100.15625 219.761719 " clip-rule="nonzero"/></clipPath><clipPath id="dd0cb4e6cc"><path d="M 112.433594 232.039062 L 125.933594 232.039062 L 125.933594 245.539062 L 112.433594 245.539062 Z M 112.433594 232.039062 " clip-rule="nonzero"/></clipPath><clipPath id="dcdd3ef30d"><path d="M 130.945312 270.382812 L 141.277344 270.382812 L 141.277344 297.660156 L 130.945312 297.660156 Z M 130.945312 270.382812 " clip-rule="nonzero"/></clipPath><clipPath id="c15e00e48e"><path d="M 55.425781 272.886719 L 89.175781 272.886719 L 89.175781 306.636719 L 55.425781 306.636719 Z M 55.425781 272.886719 " clip-rule="nonzero"/></clipPath><clipPath id="87c08f8e3b"><path d="M 65.578125 283.039062 L 79.078125 283.039062 L 79.078125 296.539062 L 65.578125 296.539062 Z M 65.578125 283.039062 " clip-rule="nonzero"/></clipPath><clipPath id="dd454b690b"><path d="M 279.667969 284.144531 L 313.417969 284.144531 L 313.417969 317.894531 L 279.667969 317.894531 Z M 279.667969 284.144531 " clip-rule="nonzero"/></clipPath><clipPath id="5f616aead3"><path d="M 289.820312 294.296875 L 303.320312 294.296875 L 303.320312 307.796875 L 289.820312 307.796875 Z M 289.820312 294.296875 " clip-rule="nonzero"/></clipPath><clipPath id="34999f356c"><path d="M 272.90625 41.273438 L 317.15625 41.273438 L 317.15625 85.523438 L 272.90625 85.523438 Z M 272.90625 41.273438 " clip-rule="nonzero"/></clipPath><clipPath id="2a867b1628"><path d="M 281.285156 49.652344 L 308.285156 49.652344 L 308.285156 76.652344 L 281.285156 76.652344 Z M 281.285156 49.652344 " clip-rule="nonzero"/></clipPath><clipPath id="e1652ddbec"><path d="M 289.613281 54.753906 L 300.285156 54.753906 L 300.285156 65.023438 L 289.613281 65.023438 Z M 289.613281 54.753906 " clip-rule="nonzero"/></clipPath><clipPath id="2d4e765b2a"><path d="M 290.453125 59.480469 C 295.542969 54.9375 296.199219 54.71875 296.855469 54.773438 C 297.566406 54.828125 298.386719 55.101562 298.933594 55.539062 C 299.480469 55.976562 299.972656 56.6875 300.082031 57.398438 C 300.191406 58.273438 299.808594 59.808594 299.261719 60.519531 C 298.824219 61.121094 298.003906 61.449219 297.347656 61.558594 C 296.636719 61.722656 295.816406 61.613281 295.160156 61.230469 C 294.449219 60.792969 293.460938 59.535156 293.351562 58.601562 C 293.242188 57.671875 293.792969 56.25 294.503906 55.59375 C 295.214844 54.992188 296.691406 54.664062 297.621094 54.882812 C 298.550781 55.101562 299.589844 56.25 299.972656 57.070312 C 300.300781 57.726562 300.355469 58.4375 300.027344 59.261719 C 299.425781 60.738281 296.417969 63.527344 294.941406 64.402344 C 294.121094 64.894531 293.40625 65.058594 292.640625 65.003906 C 291.929688 64.949219 291.054688 64.457031 290.507812 63.910156 C 290.015625 63.363281 289.6875 62.488281 289.632812 61.722656 C 289.632812 61.011719 290.453125 59.480469 290.453125 59.480469 " clip-rule="nonzero"/></clipPath><clipPath id="ea112a2032"><path d="M 149.523438 92.648438 L 159.683594 92.648438 L 159.683594 104.777344 L 149.523438 104.777344 Z M 149.523438 92.648438 " clip-rule="nonzero"/></clipPath><clipPath id="747bd42375"><path d="M 156.941406 97.601562 C 152.308594 101.992188 151.171875 97.765625 151.253906 96.300781 C 151.253906 95.40625 151.578125 94.757812 152.066406 94.1875 C 152.554688 93.621094 153.285156 93.214844 154.015625 93.050781 C 154.667969 92.886719 155.558594 92.96875 156.210938 93.292969 C 156.859375 93.539062 157.59375 94.109375 157.917969 94.839844 C 158.242188 95.652344 158.324219 97.277344 157.917969 98.089844 C 157.429688 98.984375 156.128906 99.878906 155.152344 99.960938 C 154.179688 100.121094 152.714844 99.472656 152.066406 98.742188 C 151.414062 98.007812 151.089844 96.464844 151.332031 95.570312 C 151.660156 94.59375 152.796875 93.457031 153.609375 93.132812 C 154.339844 92.808594 155.234375 92.886719 155.886719 93.132812 C 156.535156 93.375 157.1875 93.699219 157.671875 94.515625 C 158.566406 95.816406 160.03125 99.390625 159.542969 101.097656 C 159.136719 102.640625 157.105469 104.347656 155.804688 104.675781 C 154.667969 105 153.285156 104.429688 152.308594 103.863281 C 151.332031 103.292969 150.195312 102.316406 149.789062 101.179688 C 149.382812 99.878906 149.625 97.765625 150.03125 96.382812 C 150.441406 95.246094 151.171875 93.945312 151.984375 93.375 C 152.714844 92.886719 153.527344 92.644531 154.339844 92.726562 C 155.152344 92.886719 156.453125 93.699219 156.859375 94.433594 C 157.347656 95.246094 156.941406 97.601562 156.941406 97.601562 " clip-rule="nonzero"/></clipPath><clipPath id="d626063ced"><path d="M 180.300781 86.085938 L 194.257812 86.085938 L 194.257812 99.054688 L 180.300781 99.054688 Z M 180.300781 86.085938 " clip-rule="nonzero"/></clipPath><clipPath id="857b196b71"><path d="M 189.21875 93.550781 C 187.214844 94.816406 186.261719 91.542969 186.792969 90.488281 C 187.214844 89.640625 188.691406 89.21875 189.644531 89.113281 C 190.59375 89.113281 191.648438 89.429688 192.390625 89.960938 C 193.128906 90.59375 193.867188 91.4375 193.972656 92.386719 C 194.289062 93.445312 193.972656 95.453125 193.234375 96.402344 C 192.390625 97.351562 190.59375 98.195312 189.324219 97.984375 C 188.058594 97.878906 186.472656 96.824219 185.839844 95.769531 C 185.207031 94.710938 185.207031 92.707031 185.734375 91.542969 C 186.367188 90.488281 187.953125 89.324219 189.21875 89.21875 C 190.382812 89.007812 192.285156 89.855469 193.128906 90.699219 C 193.761719 91.332031 194.078125 92.386719 194.183594 93.339844 C 194.289062 94.183594 193.972656 95.238281 193.445312 96.085938 C 193.023438 96.824219 192.285156 97.351562 191.226562 97.773438 C 189.644531 98.515625 186.578125 99.359375 184.785156 98.9375 C 183.199219 98.515625 181.300781 97.351562 180.664062 95.875 C 179.925781 94.183594 180.558594 90.59375 181.511719 89.007812 C 182.25 87.742188 183.726562 86.683594 184.890625 86.367188 C 185.839844 86.050781 187.003906 86.050781 187.953125 86.578125 C 188.902344 87.109375 190.171875 88.585938 190.382812 89.746094 C 190.59375 90.910156 189.21875 93.550781 189.21875 93.550781 " clip-rule="nonzero"/></clipPath><clipPath id="4d9dcdb567"><path d="M 214.859375 92.359375 L 226.667969 92.359375 L 226.667969 103.628906 L 214.859375 103.628906 Z M 214.859375 92.359375 " clip-rule="nonzero"/></clipPath><clipPath id="257ae314d4"><path d="M 215.660156 97.800781 C 219.933594 95.699219 221.660156 95.472656 221.734375 95.699219 C 221.882812 95.925781 220.082031 97.273438 220.082031 97.273438 C 220.082031 97.273438 221.507812 95.625 221.808594 95.773438 C 222.109375 95.925781 221.359375 97.722656 221.808594 98.324219 C 222.410156 99 224.808594 98.398438 225.632812 99 C 226.234375 99.523438 226.683594 100.5 226.609375 101.175781 C 226.457031 102 225.332031 103.347656 224.582031 103.574219 C 223.757812 103.722656 222.183594 102.898438 221.808594 102.222656 C 221.359375 101.625 221.433594 100.425781 221.808594 99.824219 C 222.257812 99.148438 223.832031 98.398438 224.660156 98.550781 C 225.410156 98.699219 226.535156 100.125 226.609375 100.949219 C 226.683594 101.625 226.082031 102.675781 225.558594 103.125 C 225.183594 103.425781 224.734375 103.574219 223.984375 103.574219 C 222.632812 103.574219 218.734375 102.675781 217.609375 101.472656 C 216.859375 100.648438 216.785156 99.449219 216.785156 98.324219 C 216.707031 96.824219 216.785156 94.273438 217.683594 93.375 C 218.507812 92.472656 220.535156 92.25 221.660156 92.472656 C 222.558594 92.699219 223.308594 93.449219 223.910156 94.125 C 224.507812 94.875 225.257812 96.074219 225.257812 96.972656 C 225.332031 97.722656 225.035156 98.550781 224.359375 99.222656 C 223.082031 100.425781 218.660156 102.148438 216.933594 101.847656 C 216.035156 101.699219 215.132812 100.949219 214.910156 100.273438 C 214.683594 99.597656 215.660156 97.800781 215.660156 97.800781 " clip-rule="nonzero"/></clipPath><clipPath id="44a43e139d"><path d="M 279.765625 185.8125 L 294.042969 185.8125 L 294.042969 192.113281 L 279.765625 192.113281 Z M 279.765625 185.8125 " clip-rule="nonzero"/></clipPath><clipPath id="3a510bb504"><path d="M 282.074219 187.425781 C 292.351562 186.074219 293.398438 186.601562 293.773438 187.273438 C 294.148438 187.875 294.074219 189 293.625 189.523438 C 293.175781 190.125 291.675781 190.800781 290.925781 190.648438 C 290.175781 190.425781 289.199219 189.074219 289.125 188.25 C 289.125 187.574219 289.726562 186.675781 290.25 186.300781 C 290.625 185.925781 291.226562 185.773438 291.675781 185.851562 C 292.351562 185.925781 293.324219 186.449219 293.625 187.050781 C 294 187.726562 293.925781 189.226562 293.324219 189.976562 C 292.648438 190.800781 290.851562 191.101562 289.425781 191.398438 C 287.699219 191.851562 285.300781 192.074219 283.726562 192.074219 C 282.675781 192.074219 281.625 192.148438 280.949219 191.773438 C 280.425781 191.550781 280.050781 191.101562 279.898438 190.574219 C 279.675781 189.976562 279.75 188.925781 280.125 188.398438 C 280.5 187.875 282.074219 187.425781 282.074219 187.425781 " clip-rule="nonzero"/></clipPath><clipPath id="86534edd1b"><path d="M 282.285156 179.558594 L 290 179.558594 L 290 198.328125 L 282.285156 198.328125 Z M 282.285156 179.558594 " clip-rule="nonzero"/></clipPath><clipPath id="629177d6a3"><path d="M 283.199219 194.175781 C 284.773438 192.148438 285 187.875 284.773438 185.851562 C 284.625 184.425781 283.5 183.226562 283.574219 182.175781 C 283.648438 181.351562 284.023438 180.449219 284.550781 180.074219 C 285.148438 179.625 286.273438 179.398438 286.875 179.699219 C 287.625 180 288.601562 181.425781 288.601562 182.175781 C 288.601562 182.925781 288 183.898438 287.398438 184.199219 C 286.648438 184.574219 284.925781 184.425781 284.324219 183.898438 C 283.800781 183.300781 283.5 181.574219 283.875 180.898438 C 284.25 180.148438 285.824219 179.476562 286.648438 179.625 C 287.324219 179.699219 287.925781 180.375 288.449219 181.125 C 289.125 182.175781 289.800781 183.976562 289.949219 185.851562 C 290.101562 188.175781 289.273438 192.148438 288.601562 194.175781 C 288.226562 195.375 287.773438 196.199219 287.175781 196.875 C 286.574219 197.550781 285.75 198.074219 285.074219 198.226562 C 284.476562 198.375 283.875 198.300781 283.425781 198 C 282.898438 197.625 282.375 196.800781 282.300781 196.125 C 282.226562 195.523438 283.199219 194.175781 283.199219 194.175781 " clip-rule="nonzero"/></clipPath><clipPath id="ad4c86ca1d"><path d="M 302 96 L 317 96 L 317 108 L 302 108 Z M 302 96 " clip-rule="nonzero"/></clipPath><clipPath id="887a39cd1d"><path d="M 312.335938 109.652344 L 300.523438 104.332031 L 305.5 93.285156 L 317.3125 98.609375 Z M 312.335938 109.652344 " clip-rule="nonzero"/></clipPath><clipPath id="38851faacc"><path d="M 311 102.980469 C 308.546875 107.140625 307.945312 107.199219 307.445312 107.21875 C 306.902344 107.140625 306.257812 106.929688 305.9375 106.542969 C 305.515625 106.019531 305.253906 105.328125 305.316406 104.453125 C 305.363281 103.074219 306.601562 100.503906 307.492188 99.261719 C 308.058594 98.367188 308.710938 97.835938 309.429688 97.335938 C 310.117188 96.90625 311.039062 96.5 311.847656 96.535156 C 312.753906 96.53125 313.878906 96.957031 314.535156 97.5 C 315.160156 97.945312 315.6875 98.59375 315.851562 99.328125 C 316.085938 100.089844 316.195312 101.125 315.757812 101.914062 C 315.355469 102.804688 314.253906 103.789062 312.988281 104.042969 C 310.792969 104.53125 304.660156 103.167969 303.429688 101.707031 C 302.722656 100.898438 302.832031 99.382812 303.238281 98.660156 C 303.515625 98.046875 304.636719 97.5625 305.308594 97.535156 C 305.839844 97.449219 306.417969 97.625 306.835938 97.976562 C 307.359375 98.460938 307.96875 99.476562 307.898438 100.183594 C 307.796875 100.960938 306.746094 102.378906 305.945312 102.511719 C 305.113281 102.714844 303.539062 102.003906 303.109375 101.316406 C 302.71875 100.730469 302.769531 99.519531 303.046875 98.902344 C 303.421875 98.25 304.210938 97.78125 305.003906 97.480469 C 306.101562 97.234375 308.027344 97.527344 309.28125 97.847656 C 310.164062 98.078125 311.210938 98.304688 311.675781 98.925781 C 312.066406 99.511719 312.03125 100.320312 311.867188 101.234375 C 311.65625 102.617188 310.253906 105.359375 309.421875 106.300781 C 308.9375 106.824219 308.511719 107.042969 308.046875 107.160156 C 307.511719 107.25 306.804688 107.175781 306.355469 106.894531 C 305.832031 106.410156 305.253906 105.328125 305.316406 104.453125 C 305.300781 103.210938 306.585938 100.910156 307.464844 100.234375 C 307.882812 99.847656 308.515625 99.722656 308.988281 99.769531 C 309.492188 99.75 310.136719 99.960938 310.492188 100.449219 C 310.917969 100.96875 311 102.980469 311 102.980469 " clip-rule="nonzero"/></clipPath><clipPath id="09a5649d26"><path d="M 295.148438 262.226562 L 303.386719 262.226562 L 303.386719 270.953125 L 295.148438 270.953125 Z M 295.148438 262.226562 " clip-rule="nonzero"/></clipPath><clipPath id="a92a07dea9"><path d="M 300.976562 269.566406 C 299.699219 270.992188 298.351562 271.066406 297.601562 270.691406 C 296.699219 270.316406 295.5 269.039062 295.273438 268.066406 C 294.976562 267.015625 295.574219 265.367188 296.101562 264.617188 C 296.476562 264.089844 297 263.789062 297.601562 263.566406 C 298.351562 263.339844 299.476562 263.191406 300.300781 263.566406 C 301.199219 264.015625 302.398438 265.214844 302.625 266.265625 C 302.925781 267.316406 302.476562 268.964844 301.726562 269.714844 C 301.050781 270.464844 299.398438 271.066406 298.425781 270.914062 C 297.375 270.765625 295.949219 269.714844 295.5 268.816406 C 295.050781 267.839844 295.125 266.117188 295.648438 265.214844 C 296.175781 264.316406 297.601562 263.414062 298.648438 263.339844 C 299.699219 263.265625 301.273438 263.941406 301.949219 264.765625 C 302.550781 265.589844 302.925781 267.316406 302.550781 268.289062 C 302.25 269.265625 300.976562 270.464844 300 270.765625 C 299.25 271.066406 298.273438 270.914062 297.601562 270.691406 C 297 270.464844 296.476562 270.242188 296.101562 269.640625 C 295.574219 268.890625 294.976562 267.316406 295.273438 266.191406 C 295.574219 264.914062 297.226562 263.039062 298.351562 262.515625 C 299.175781 262.066406 300.226562 262.214844 301.050781 262.515625 C 301.800781 262.816406 302.699219 263.492188 303.074219 264.316406 C 303.449219 265.214844 303.449219 266.941406 303 267.839844 C 302.699219 268.589844 300.976562 269.566406 300.976562 269.566406 " clip-rule="nonzero"/></clipPath><clipPath id="bcaf13dca5"><path d="M 253.496094 302.449219 L 263.8125 302.449219 L 263.8125 318 L 253.496094 318 Z M 253.496094 302.449219 " clip-rule="nonzero"/></clipPath><clipPath id="697f79957e"><path d="M 263.773438 306.601562 C 262.875 309.75 261.300781 312.226562 260.023438 312.976562 C 258.976562 313.574219 257.476562 313.5 256.574219 313.351562 C 255.898438 313.273438 255.449219 313.125 255 312.675781 C 254.398438 312.226562 253.800781 311.25 253.648438 310.574219 C 253.5 309.976562 253.574219 309.375 253.726562 308.851562 C 253.875 308.324219 254.175781 307.800781 254.550781 307.425781 C 255.148438 306.898438 255.976562 306.449219 256.875 306.300781 C 258.148438 306.226562 260.324219 306.675781 261.523438 307.425781 C 262.574219 308.101562 263.625 309 263.773438 310.273438 C 264 312.074219 261.226562 316.726562 260.175781 317.625 C 259.726562 317.925781 259.5 317.925781 259.050781 317.925781 C 258.375 317.925781 257.324219 317.851562 256.726562 317.398438 C 256.125 317.023438 255.449219 316.425781 255.226562 315.675781 C 254.925781 314.773438 255 313.050781 255.601562 312.226562 C 256.125 311.398438 257.550781 310.648438 258.601562 310.648438 C 259.574219 310.648438 261.074219 311.398438 261.675781 312.226562 C 262.199219 313.050781 262.425781 314.699219 262.050781 315.601562 C 261.675781 316.574219 260.324219 317.550781 259.425781 317.851562 C 258.675781 318.074219 257.773438 317.925781 257.101562 317.625 C 256.425781 317.324219 255.675781 316.726562 255.375 316.050781 C 255 315.148438 255 313.425781 255.375 312.601562 C 255.675781 311.851562 256.726562 310.875 257.023438 310.949219 C 257.398438 311.101562 257.773438 313.125 257.398438 313.425781 C 257.101562 313.726562 255.601562 313.199219 255 312.675781 C 254.324219 312.226562 253.800781 311.25 253.648438 310.574219 C 253.5 309.976562 253.5 309.449219 253.726562 308.851562 C 253.949219 308.175781 254.625 307.273438 255.226562 306.824219 C 255.75 306.523438 256.726562 306.148438 256.875 306.300781 C 256.949219 306.449219 256.648438 306.976562 256.648438 306.976562 C 256.648438 306.976562 257.175781 304.425781 257.773438 303.601562 C 258.375 303 259.125 302.550781 259.949219 302.476562 C 260.851562 302.398438 262.351562 302.851562 262.949219 303.523438 C 263.625 304.199219 263.773438 306.601562 263.773438 306.601562 " clip-rule="nonzero"/></clipPath><clipPath id="80f3817d0e"><path d="M 258.894531 306.101562 L 267.566406 306.101562 L 267.566406 311.824219 L 258.894531 311.824219 Z M 258.894531 306.101562 " clip-rule="nonzero"/></clipPath><clipPath id="5aa6fc197b"><path d="M 260.851562 307.273438 C 266.101562 306.226562 266.851562 306.675781 267.148438 307.199219 C 267.523438 307.726562 267.601562 308.773438 267.300781 309.375 C 267 309.976562 265.574219 310.726562 264.898438 310.726562 C 264.226562 310.648438 263.324219 310.050781 263.101562 309.449219 C 262.875 308.773438 263.175781 307.199219 263.699219 306.675781 C 264.148438 306.226562 265.199219 306 265.800781 306.148438 C 266.476562 306.449219 267.449219 307.648438 267.523438 308.398438 C 267.601562 309 267.074219 309.824219 266.550781 310.351562 C 265.800781 310.949219 264.074219 311.398438 262.949219 311.625 C 262.050781 311.773438 261.074219 311.925781 260.398438 311.699219 C 259.875 311.476562 259.425781 311.101562 259.199219 310.648438 C 258.898438 310.050781 258.824219 309.074219 259.125 308.476562 C 259.425781 307.949219 260.851562 307.273438 260.851562 307.273438 " clip-rule="nonzero"/></clipPath><clipPath id="f6b29b8d0e"><path d="M 42.59375 241.769531 L 48.183594 241.769531 L 48.183594 257.613281 L 42.59375 257.613281 Z M 42.59375 241.769531 " clip-rule="nonzero"/></clipPath><clipPath id="654663e8a0"><path d="M 48.148438 244.5 C 47.25 256.800781 46.574219 257.25 46.050781 257.476562 C 45.523438 257.625 44.925781 257.625 44.476562 257.398438 C 43.949219 257.101562 43.199219 256.273438 42.976562 255.675781 C 42.824219 255.148438 42.898438 254.550781 43.199219 254.101562 C 43.5 253.574219 44.398438 252.898438 45 252.75 C 45.449219 252.601562 46.050781 252.75 46.5 252.976562 C 47.023438 253.351562 47.699219 254.175781 47.773438 254.851562 C 47.851562 255.523438 47.398438 256.5 46.949219 256.949219 C 46.574219 257.324219 46.050781 257.625 45.523438 257.550781 C 44.773438 257.476562 43.574219 256.875 43.050781 255.898438 C 42.074219 254.023438 42.976562 247.800781 43.273438 245.398438 C 43.5 244.199219 43.574219 243.300781 44.023438 242.699219 C 44.398438 242.25 44.925781 241.875 45.449219 241.800781 C 46.050781 241.726562 47.023438 241.949219 47.476562 242.398438 C 47.925781 242.851562 48.148438 244.5 48.148438 244.5 " clip-rule="nonzero"/></clipPath><clipPath id="27b739cf71"><path d="M 35 246.058594 L 58.460938 246.058594 L 58.460938 251.617188 L 35 251.617188 Z M 35 246.058594 " clip-rule="nonzero"/></clipPath><clipPath id="8539056e28"><path d="M 37.351562 246.300781 C 57.824219 246.824219 58.351562 248.023438 58.425781 248.773438 C 58.5 249.300781 58.199219 249.824219 57.824219 250.199219 C 57.375 250.648438 56.324219 251.101562 55.648438 251.101562 C 55.125 251.101562 54.523438 250.800781 54.226562 250.425781 C 53.773438 249.898438 53.398438 248.851562 53.476562 248.175781 C 53.476562 247.648438 53.773438 247.125 54.226562 246.824219 C 54.675781 246.375 55.800781 245.925781 56.476562 246.148438 C 57.226562 246.375 58.273438 247.726562 58.425781 248.476562 C 58.5 249 58.351562 249.601562 57.976562 249.976562 C 57.601562 250.5 57 250.875 55.949219 251.101562 C 52.800781 251.851562 39.449219 251.699219 36.75 250.875 C 36 250.574219 35.699219 250.351562 35.398438 249.898438 C 35.175781 249.523438 34.949219 248.851562 35.023438 248.324219 C 35.101562 247.800781 35.398438 247.199219 35.773438 246.898438 C 36.148438 246.523438 37.351562 246.300781 37.351562 246.300781 " clip-rule="nonzero"/></clipPath><clipPath id="1d8a4bca35"><path d="M 54.097656 73.25 L 71.164062 73.25 L 71.164062 90.855469 L 54.097656 90.855469 Z M 54.097656 73.25 " clip-rule="nonzero"/></clipPath><clipPath id="e29f8ea394"><path d="M 54.148438 79.105469 C 57.523438 74.53125 58.875 73.78125 60.300781 73.480469 C 61.648438 73.179688 63.375 73.179688 64.726562 73.554688 C 65.925781 73.929688 67.125 74.605469 67.949219 75.507812 C 68.851562 76.40625 69.449219 77.53125 69.976562 78.882812 C 70.574219 80.382812 71.476562 82.554688 71.023438 84.28125 C 70.574219 86.304688 67.800781 89.15625 66.226562 90.054688 C 65.324219 90.65625 64.199219 90.582031 63.523438 90.730469 C 63.148438 90.804688 62.925781 90.804688 62.625 90.804688 C 62.324219 90.804688 61.949219 90.730469 61.726562 90.65625 C 61.425781 90.582031 61.125 90.429688 60.824219 90.28125 C 60.523438 90.132812 60.300781 89.980469 60.074219 89.757812 C 59.851562 89.53125 59.625 89.304688 59.476562 89.082031 C 59.398438 88.929688 59.398438 88.78125 59.25 88.632812 C 58.949219 88.332031 57.449219 88.40625 56.773438 87.804688 C 55.875 87.132812 55.125 85.632812 54.675781 84.207031 C 54.148438 82.707031 54.148438 79.105469 54.148438 79.105469 " clip-rule="nonzero"/></clipPath><clipPath id="770689cf65"><path d="M 50.5 114.011719 L 59.316406 114.011719 L 59.316406 122.945312 L 50.5 122.945312 Z M 50.5 114.011719 " clip-rule="nonzero"/></clipPath><clipPath id="8ba98429bf"><path d="M 59.316406 117.039062 C 58.191406 121.835938 57.515625 122.210938 56.839844 122.511719 C 56.242188 122.738281 55.492188 123.039062 54.742188 122.886719 C 53.691406 122.664062 51.816406 121.539062 51.140625 120.710938 C 50.691406 120.113281 50.464844 119.4375 50.542969 118.6875 C 50.617188 117.5625 51.292969 115.613281 52.265625 114.863281 C 53.242188 114.113281 55.265625 113.886719 56.390625 114.113281 C 57.140625 114.261719 58.191406 115.238281 58.191406 115.238281 " clip-rule="nonzero"/></clipPath><clipPath id="86d52f67dc"><path d="M 47.277344 116.628906 L 62.550781 116.628906 L 62.550781 120.5625 L 47.277344 120.5625 Z M 47.277344 116.628906 " clip-rule="nonzero"/></clipPath><clipPath id="0b54ba3a73"><path d="M 48.777344 117 C 62.203125 117 62.578125 118.199219 62.429688 118.800781 C 62.277344 119.25 61.230469 119.851562 60.628906 119.851562 C 60.179688 119.851562 59.578125 119.324219 59.355469 118.949219 C 59.128906 118.5 59.054688 117.75 59.355469 117.375 C 59.652344 116.851562 61.152344 116.476562 61.753906 116.699219 C 62.128906 116.851562 62.503906 117.601562 62.503906 118.050781 C 62.578125 118.5 62.355469 119.101562 61.902344 119.476562 C 60.929688 120.226562 58.078125 120.375 55.980469 120.449219 C 53.578125 120.523438 49.304688 120.75 48.105469 119.851562 C 47.429688 119.398438 47.203125 118.5 47.355469 117.976562 C 47.503906 117.523438 48.777344 117 48.777344 117 " clip-rule="nonzero"/></clipPath><clipPath id="ea84ccbad0"><path d="M 307.101562 92.640625 L 310.597656 92.640625 L 310.597656 99.894531 L 307.101562 99.894531 Z M 307.101562 92.640625 " clip-rule="nonzero"/></clipPath><clipPath id="11aeedd208"><path d="M 307.5 98.324219 C 307.726562 94.875 306.976562 94.273438 307.125 93.824219 C 307.199219 93.375 307.648438 92.851562 308.101562 92.699219 C 308.550781 92.550781 309.523438 92.925781 309.898438 93.300781 C 310.125 93.601562 310.273438 94.351562 310.050781 94.726562 C 309.824219 95.175781 308.925781 95.773438 308.476562 95.699219 C 308.023438 95.699219 307.425781 95.324219 307.273438 94.949219 C 307.050781 94.5 307.125 93.449219 307.5 93.074219 C 307.875 92.699219 308.925781 92.476562 309.375 92.851562 C 310.125 93.375 310.726562 96.148438 310.574219 97.351562 C 310.574219 98.324219 310.125 99.449219 309.601562 99.75 C 309.226562 99.976562 308.550781 99.824219 308.175781 99.601562 C 307.875 99.300781 307.5 98.324219 307.5 98.324219 " clip-rule="nonzero"/></clipPath></defs><g clip-path="url(#e9e2bc6351)"><path fill="#ffffff" d="M 187.484375 58.191406 C 223.1875 58.191406 255.511719 72.660156 278.910156 96.058594 C 302.308594 119.457031 316.78125 151.78125 316.78125 187.484375 C 316.78125 223.183594 302.308594 255.511719 278.910156 278.910156 C 255.511719 302.308594 223.1875 316.78125 187.484375 316.78125 C 151.78125 316.78125 119.457031 302.308594 96.058594 278.910156 C 72.660156 255.511719 58.191406 223.183594 58.191406 187.484375 C 58.191406 151.78125 72.660156 119.457031 96.058594 96.058594 C 119.457031 72.660156 151.78125 58.191406 187.484375 58.191406 Z M 268.75 106.21875 C 247.957031 85.417969 219.222656 72.554688 187.484375 72.554688 C 155.75 72.554688 127.015625 85.417969 106.21875 106.21875 C 85.417969 127.015625 72.554688 155.746094 72.554688 187.484375 C 72.554688 219.222656 85.417969 247.957031 106.21875 268.75 C 127.015625 289.550781 155.75 302.414062 187.484375 302.414062 C 219.222656 302.414062 247.957031 289.550781 268.75 268.75 C 289.550781 247.957031 302.414062 219.222656 302.414062 187.484375 C 302.414062 155.746094 289.550781 127.015625 268.75 106.21875 " fill-opacity="1" fill-rule="nonzero"/></g><g clip-path="url(#d7ec71abe1)"><path fill="#ffffff" d="M 102.449219 119.371094 L 272.347656 119.371094 C 272.347656 128.875 272.347656 138.378906 272.347656 147.882812 C 215.714844 147.882812 159.082031 147.882812 102.449219 147.882812 C 102.449219 138.378906 102.449219 128.875 102.449219 119.371094 " fill-opacity="1" fill-rule="nonzero"/></g><g clip-path="url(#d640d87ffa)"><path fill="#ffffff" d="M 173.34375 289.625 L 173.34375 119.722656 C 182.847656 119.722656 192.355469 119.722656 201.859375 119.722656 C 201.859375 176.359375 201.859375 232.992188 201.859375 289.625 C 192.355469 289.625 182.847656 289.625 173.34375 289.625 " fill-opacity="1" fill-rule="nonzero"/></g><g clip-path="url(#701ff50161)"><path fill="#ffffff" d="M 215.359375 160.914062 L 272.691406 160.914062 L 272.691406 179.191406 L 215.359375 179.191406 Z M 215.359375 160.914062 " fill-opacity="1" fill-rule="nonzero"/></g><g clip-path="url(#2e57ce0803)"><path fill="#ffffff" d="M 215.359375 198.253906 L 215.359375 165.035156 L 227.492188 165.035156 L 227.492188 198.253906 Z M 215.359375 198.253906 " fill-opacity="1" fill-rule="nonzero"/></g><g clip-path="url(#6853dd33a9)"><path fill="#ffffff" d="M 215.359375 194.125 L 272.703125 194.125 L 272.703125 206.257812 L 215.359375 206.257812 Z M 215.359375 194.125 " fill-opacity="1" fill-rule="nonzero"/></g><g clip-path="url(#9b84843a74)"><path fill="#ffffff" d="M 260.589844 233.402344 L 260.589844 200.179688 L 272.722656 200.179688 L 272.722656 233.402344 Z M 260.589844 233.402344 " fill-opacity="1" fill-rule="nonzero"/></g><g clip-path="url(#4860fea32f)"><path fill="#ffffff" d="M 215.359375 221.257812 L 272.730469 221.257812 L 272.730469 239.390625 L 215.359375 239.390625 Z M 215.359375 221.257812 " fill-opacity="1" fill-rule="nonzero"/></g><g clip-path="url(#6798d20b02)"><path fill="#ffffff" d="M 68.738281 164.886719 L 159.828125 164.886719 L 159.828125 175.21875 L 68.738281 175.21875 Z M 68.738281 164.886719 " fill-opacity="1" fill-rule="nonzero"/></g><g clip-path="url(#1672c48c49)"><path fill="#ffffff" d="M 68.738281 183.792969 L 159.828125 183.792969 L 159.828125 194.125 L 68.738281 194.125 Z M 68.738281 183.792969 " fill-opacity="1" fill-rule="nonzero"/></g><g clip-path="url(#01ad07a620)"><path fill="#ffffff" d="M 68.738281 202.375 L 159.828125 202.375 L 159.828125 212.707031 L 68.738281 212.707031 Z M 68.738281 202.375 " fill-opacity="1" fill-rule="nonzero"/></g><g clip-path="url(#470c1b8ea7)"><path fill="#ffffff" d="M 149.5 310.445312 L 149.5 230.335938 L 159.832031 230.335938 L 159.832031 310.445312 Z M 149.5 310.445312 " fill-opacity="1" fill-rule="nonzero"/></g><g clip-path="url(#1ae45f438c)"><path fill="#ffffff" d="M 138.40625 238.886719 C 138.40625 239.515625 138.378906 240.140625 138.316406 240.761719 C 138.253906 241.386719 138.164062 242.003906 138.039062 242.617188 C 137.917969 243.234375 137.765625 243.839844 137.585938 244.4375 C 137.402344 245.039062 137.191406 245.628906 136.953125 246.207031 C 136.710938 246.785156 136.445312 247.351562 136.148438 247.902344 C 135.855469 248.457031 135.53125 248.992188 135.183594 249.511719 C 134.835938 250.035156 134.464844 250.535156 134.066406 251.019531 C 133.667969 251.503906 133.25 251.96875 132.804688 252.410156 C 132.363281 252.855469 131.898438 253.273438 131.414062 253.671875 C 130.929688 254.070312 130.429688 254.441406 129.90625 254.789062 C 129.386719 255.136719 128.851562 255.460938 128.296875 255.753906 C 127.746094 256.050781 127.179688 256.316406 126.601562 256.558594 C 126.023438 256.796875 125.433594 257.007812 124.835938 257.1875 C 124.234375 257.371094 123.628906 257.523438 123.015625 257.644531 C 122.398438 257.765625 121.78125 257.859375 121.15625 257.921875 C 120.535156 257.980469 119.910156 258.011719 119.28125 258.011719 C 118.65625 258.011719 118.03125 257.980469 117.410156 257.921875 C 116.785156 257.859375 116.167969 257.765625 115.550781 257.644531 C 114.9375 257.523438 114.332031 257.371094 113.730469 257.1875 C 113.132812 257.007812 112.542969 256.796875 111.964844 256.558594 C 111.386719 256.316406 110.820312 256.050781 110.265625 255.753906 C 109.714844 255.460938 109.179688 255.136719 108.65625 254.789062 C 108.136719 254.441406 107.632812 254.070312 107.148438 253.671875 C 106.664062 253.273438 106.203125 252.855469 105.757812 252.410156 C 105.316406 251.96875 104.894531 251.503906 104.5 251.019531 C 104.101562 250.535156 103.730469 250.035156 103.382812 249.511719 C 103.03125 248.992188 102.710938 248.457031 102.417969 247.902344 C 102.121094 247.351562 101.851562 246.785156 101.613281 246.207031 C 101.375 245.628906 101.164062 245.039062 100.980469 244.4375 C 100.800781 243.839844 100.648438 243.234375 100.527344 242.617188 C 100.402344 242.003906 100.3125 241.386719 100.25 240.761719 C 100.1875 240.140625 100.15625 239.515625 100.15625 238.886719 C 100.15625 238.261719 100.1875 237.636719 100.25 237.011719 C 100.3125 236.390625 100.402344 235.769531 100.527344 235.15625 C 100.648438 234.542969 100.800781 233.933594 100.980469 233.335938 C 101.164062 232.738281 101.375 232.148438 101.613281 231.570312 C 101.851562 230.988281 102.121094 230.425781 102.417969 229.871094 C 102.710938 229.320312 103.03125 228.78125 103.382812 228.261719 C 103.730469 227.742188 104.101562 227.238281 104.5 226.753906 C 104.894531 226.269531 105.316406 225.808594 105.757812 225.363281 C 106.203125 224.921875 106.664062 224.5 107.148438 224.105469 C 107.632812 223.707031 108.136719 223.332031 108.65625 222.984375 C 109.179688 222.636719 109.714844 222.316406 110.265625 222.019531 C 110.820312 221.726562 111.386719 221.457031 111.964844 221.21875 C 112.542969 220.980469 113.132812 220.769531 113.730469 220.585938 C 114.332031 220.40625 114.9375 220.253906 115.550781 220.128906 C 116.167969 220.007812 116.785156 219.917969 117.410156 219.855469 C 118.03125 219.792969 118.65625 219.761719 119.28125 219.761719 C 119.910156 219.761719 120.535156 219.792969 121.15625 219.855469 C 121.78125 219.917969 122.398438 220.007812 123.015625 220.128906 C 123.628906 220.253906 124.234375 220.40625 124.835938 220.585938 C 125.433594 220.769531 126.023438 220.980469 126.601562 221.21875 C 127.179688 221.457031 127.746094 221.726562 128.296875 222.019531 C 128.851562 222.316406 129.386719 222.636719 129.90625 222.984375 C 130.429688 223.332031 130.929688 223.707031 131.414062 224.105469 C 131.898438 224.5 132.363281 224.921875 132.804688 225.363281 C 133.25 225.808594 133.667969 226.269531 134.066406 226.753906 C 134.464844 227.238281 134.835938 227.742188 135.183594 228.261719 C 135.53125 228.78125 135.855469 229.320312 136.148438 229.871094 C 136.445312 230.425781 136.710938 230.988281 136.953125 231.570312 C 137.191406 232.148438 137.402344 232.738281 137.585938 233.335938 C 137.765625 233.933594 137.917969 234.542969 138.039062 235.15625 C 138.164062 235.769531 138.253906 236.390625 138.316406 237.011719 C 138.378906 237.636719 138.40625 238.261719 138.40625 238.886719 Z M 138.40625 238.886719 " fill-opacity="1" fill-rule="nonzero"/></g><g clip-path="url(#dd0cb4e6cc)"><path fill="#1e1e1e" d="M 125.957031 238.800781 C 125.957031 239.242188 125.914062 239.683594 125.828125 240.117188 C 125.738281 240.554688 125.613281 240.976562 125.441406 241.386719 C 125.273438 241.796875 125.0625 242.1875 124.816406 242.554688 C 124.570312 242.925781 124.289062 243.265625 123.976562 243.582031 C 123.664062 243.894531 123.320312 244.175781 122.953125 244.421875 C 122.582031 244.667969 122.191406 244.875 121.78125 245.046875 C 121.371094 245.214844 120.949219 245.34375 120.515625 245.429688 C 120.078125 245.519531 119.640625 245.5625 119.195312 245.5625 C 118.75 245.5625 118.3125 245.519531 117.875 245.429688 C 117.441406 245.34375 117.015625 245.214844 116.605469 245.046875 C 116.195312 244.875 115.808594 244.667969 115.4375 244.421875 C 115.070312 244.175781 114.726562 243.894531 114.414062 243.582031 C 114.101562 243.265625 113.820312 242.925781 113.574219 242.554688 C 113.324219 242.1875 113.117188 241.796875 112.949219 241.386719 C 112.777344 240.976562 112.648438 240.554688 112.5625 240.117188 C 112.476562 239.683594 112.433594 239.242188 112.433594 238.800781 C 112.433594 238.355469 112.476562 237.914062 112.5625 237.480469 C 112.648438 237.046875 112.777344 236.621094 112.949219 236.210938 C 113.117188 235.800781 113.324219 235.414062 113.574219 235.042969 C 113.820312 234.675781 114.101562 234.332031 114.414062 234.019531 C 114.726562 233.703125 115.070312 233.425781 115.4375 233.175781 C 115.808594 232.929688 116.195312 232.722656 116.605469 232.550781 C 117.015625 232.382812 117.441406 232.253906 117.875 232.167969 C 118.3125 232.082031 118.75 232.039062 119.195312 232.039062 C 119.640625 232.039062 120.078125 232.082031 120.515625 232.167969 C 120.949219 232.253906 121.371094 232.382812 121.78125 232.550781 C 122.191406 232.722656 122.582031 232.929688 122.953125 233.175781 C 123.320312 233.425781 123.664062 233.703125 123.976562 234.019531 C 124.289062 234.332031 124.570312 234.675781 124.816406 235.042969 C 125.0625 235.414062 125.273438 235.800781 125.441406 236.210938 C 125.613281 236.621094 125.738281 237.046875 125.828125 237.480469 C 125.914062 237.914062 125.957031 238.355469 125.957031 238.800781 Z M 125.957031 238.800781 " fill-opacity="1" fill-rule="nonzero"/></g><g clip-path="url(#dcdd3ef30d)"><path fill="#ffffff" d="M 130.945312 297.660156 L 130.945312 270.378906 L 141.277344 270.378906 L 141.277344 297.660156 Z M 130.945312 297.660156 " fill-opacity="1" fill-rule="nonzero"/></g><g clip-path="url(#c15e00e48e)"><path fill="#ffffff" d="M 89.175781 289.761719 C 89.175781 290.3125 89.148438 290.867188 89.09375 291.414062 C 89.039062 291.964844 88.957031 292.511719 88.851562 293.054688 C 88.742188 293.597656 88.609375 294.132812 88.449219 294.660156 C 88.289062 295.1875 88.101562 295.707031 87.890625 296.21875 C 87.679688 296.730469 87.441406 297.230469 87.183594 297.714844 C 86.921875 298.203125 86.636719 298.675781 86.332031 299.136719 C 86.023438 299.597656 85.695312 300.039062 85.34375 300.46875 C 84.992188 300.894531 84.625 301.304688 84.234375 301.695312 C 83.839844 302.085938 83.433594 302.457031 83.003906 302.804688 C 82.578125 303.15625 82.136719 303.484375 81.675781 303.792969 C 81.214844 304.101562 80.742188 304.382812 80.253906 304.644531 C 79.765625 304.90625 79.269531 305.140625 78.757812 305.351562 C 78.246094 305.5625 77.726562 305.75 77.199219 305.910156 C 76.667969 306.070312 76.132812 306.203125 75.59375 306.3125 C 75.050781 306.421875 74.503906 306.5 73.953125 306.554688 C 73.402344 306.609375 72.851562 306.636719 72.300781 306.636719 C 71.746094 306.636719 71.195312 306.609375 70.644531 306.554688 C 70.097656 306.5 69.550781 306.421875 69.007812 306.3125 C 68.464844 306.203125 67.929688 306.070312 67.402344 305.910156 C 66.871094 305.75 66.351562 305.5625 65.84375 305.351562 C 65.332031 305.140625 64.832031 304.90625 64.34375 304.644531 C 63.859375 304.382812 63.382812 304.101562 62.925781 303.792969 C 62.464844 303.484375 62.023438 303.15625 61.59375 302.804688 C 61.167969 302.457031 60.757812 302.085938 60.367188 301.695312 C 59.976562 301.304688 59.605469 300.894531 59.253906 300.46875 C 58.90625 300.039062 58.574219 299.597656 58.269531 299.136719 C 57.960938 298.675781 57.679688 298.203125 57.417969 297.714844 C 57.15625 297.230469 56.921875 296.730469 56.710938 296.21875 C 56.496094 295.707031 56.3125 295.1875 56.152344 294.660156 C 55.992188 294.132812 55.855469 293.597656 55.75 293.054688 C 55.640625 292.511719 55.558594 291.964844 55.507812 291.414062 C 55.453125 290.867188 55.425781 290.3125 55.425781 289.761719 C 55.425781 289.207031 55.453125 288.65625 55.507812 288.109375 C 55.558594 287.558594 55.640625 287.011719 55.75 286.46875 C 55.855469 285.925781 55.992188 285.390625 56.152344 284.863281 C 56.3125 284.335938 56.496094 283.8125 56.710938 283.304688 C 56.921875 282.792969 57.15625 282.292969 57.417969 281.808594 C 57.679688 281.320312 57.960938 280.847656 58.269531 280.386719 C 58.574219 279.925781 58.90625 279.484375 59.253906 279.054688 C 59.605469 278.628906 59.976562 278.21875 60.367188 277.828125 C 60.757812 277.4375 61.167969 277.066406 61.59375 276.71875 C 62.023438 276.367188 62.464844 276.039062 62.925781 275.730469 C 63.382812 275.421875 63.859375 275.140625 64.34375 274.878906 C 64.832031 274.617188 65.332031 274.382812 65.84375 274.171875 C 66.351562 273.960938 66.871094 273.773438 67.402344 273.613281 C 67.929688 273.453125 68.464844 273.320312 69.007812 273.210938 C 69.550781 273.101562 70.097656 273.023438 70.644531 272.96875 C 71.195312 272.914062 71.746094 272.886719 72.300781 272.886719 C 72.851562 272.886719 73.402344 272.914062 73.953125 272.96875 C 74.503906 273.023438 75.050781 273.101562 75.59375 273.210938 C 76.132812 273.320312 76.667969 273.453125 77.199219 273.613281 C 77.726562 273.773438 78.246094 273.960938 78.757812 274.171875 C 79.269531 274.382812 79.765625 274.617188 80.253906 274.878906 C 80.742188 275.140625 81.214844 275.421875 81.675781 275.730469 C 82.136719 276.039062 82.578125 276.367188 83.003906 276.71875 C 83.433594 277.066406 83.839844 277.4375 84.234375 277.828125 C 84.625 278.21875 84.992188 278.628906 85.34375 279.054688 C 85.695312 279.484375 86.023438 279.925781 86.332031 280.386719 C 86.636719 280.847656 86.921875 281.320312 87.183594 281.808594 C 87.441406 282.292969 87.679688 282.792969 87.890625 283.304688 C 88.101562 283.8125 88.289062 284.335938 88.449219 284.863281 C 88.609375 285.390625 88.742188 285.925781 88.851562 286.46875 C 88.957031 287.011719 89.039062 287.558594 89.09375 288.109375 C 89.148438 288.65625 89.175781 289.207031 89.175781 289.761719 Z M 89.175781 289.761719 " fill-opacity="1" fill-rule="nonzero"/></g><g clip-path="url(#87c08f8e3b)"><path fill="#1e1e1e" d="M 79.101562 289.800781 C 79.101562 290.246094 79.058594 290.6875 78.972656 291.121094 C 78.886719 291.558594 78.757812 291.980469 78.585938 292.390625 C 78.417969 292.800781 78.210938 293.191406 77.960938 293.558594 C 77.714844 293.929688 77.4375 294.269531 77.121094 294.582031 C 76.808594 294.898438 76.464844 295.175781 76.097656 295.425781 C 75.726562 295.671875 75.339844 295.878906 74.929688 296.050781 C 74.519531 296.21875 74.09375 296.347656 73.660156 296.433594 C 73.222656 296.519531 72.785156 296.5625 72.339844 296.5625 C 71.898438 296.5625 71.457031 296.519531 71.023438 296.433594 C 70.585938 296.347656 70.164062 296.21875 69.753906 296.050781 C 69.34375 295.878906 68.953125 295.671875 68.585938 295.425781 C 68.214844 295.175781 67.875 294.898438 67.558594 294.582031 C 67.246094 294.269531 66.964844 293.929688 66.71875 293.558594 C 66.472656 293.191406 66.261719 292.800781 66.09375 292.390625 C 65.921875 291.980469 65.796875 291.558594 65.707031 291.121094 C 65.621094 290.6875 65.578125 290.246094 65.578125 289.800781 C 65.578125 289.359375 65.621094 288.917969 65.707031 288.484375 C 65.796875 288.046875 65.921875 287.625 66.09375 287.214844 C 66.261719 286.804688 66.472656 286.414062 66.71875 286.046875 C 66.964844 285.675781 67.246094 285.335938 67.558594 285.019531 C 67.875 284.707031 68.214844 284.425781 68.585938 284.179688 C 68.953125 283.933594 69.34375 283.726562 69.753906 283.554688 C 70.164062 283.386719 70.585938 283.257812 71.023438 283.171875 C 71.457031 283.082031 71.898438 283.039062 72.339844 283.039062 C 72.785156 283.039062 73.222656 283.082031 73.660156 283.171875 C 74.09375 283.257812 74.519531 283.386719 74.929688 283.554688 C 75.339844 283.726562 75.726562 283.933594 76.097656 284.179688 C 76.464844 284.425781 76.808594 284.707031 77.121094 285.019531 C 77.4375 285.335938 77.714844 285.675781 77.960938 286.046875 C 78.210938 286.414062 78.417969 286.804688 78.585938 287.214844 C 78.757812 287.625 78.886719 288.046875 78.972656 288.484375 C 79.058594 288.917969 79.101562 289.359375 79.101562 289.800781 Z M 79.101562 289.800781 " fill-opacity="1" fill-rule="nonzero"/></g><g clip-path="url(#dd454b690b)"><path fill="#ffffff" d="M 313.417969 301.019531 C 313.417969 301.570312 313.390625 302.125 313.335938 302.671875 C 313.28125 303.222656 313.203125 303.769531 313.09375 304.3125 C 312.984375 304.855469 312.851562 305.390625 312.691406 305.917969 C 312.53125 306.445312 312.34375 306.964844 312.132812 307.476562 C 311.921875 307.988281 311.6875 308.488281 311.425781 308.972656 C 311.164062 309.460938 310.882812 309.933594 310.574219 310.394531 C 310.265625 310.855469 309.9375 311.296875 309.585938 311.726562 C 309.238281 312.152344 308.867188 312.5625 308.476562 312.953125 C 308.085938 313.34375 307.675781 313.714844 307.25 314.0625 C 306.820312 314.414062 306.378906 314.742188 305.917969 315.050781 C 305.457031 315.359375 304.984375 315.640625 304.496094 315.902344 C 304.011719 316.164062 303.511719 316.398438 303 316.609375 C 302.488281 316.820312 301.96875 317.007812 301.441406 317.167969 C 300.914062 317.328125 300.378906 317.460938 299.835938 317.570312 C 299.292969 317.679688 298.746094 317.757812 298.195312 317.8125 C 297.648438 317.867188 297.09375 317.894531 296.542969 317.894531 C 295.992188 317.894531 295.4375 317.867188 294.890625 317.8125 C 294.339844 317.757812 293.792969 317.679688 293.25 317.570312 C 292.707031 317.460938 292.171875 317.328125 291.644531 317.167969 C 291.117188 317.007812 290.597656 316.820312 290.085938 316.609375 C 289.574219 316.398438 289.074219 316.164062 288.589844 315.902344 C 288.101562 315.640625 287.628906 315.359375 287.167969 315.050781 C 286.707031 314.742188 286.265625 314.414062 285.835938 314.0625 C 285.410156 313.714844 285 313.34375 284.609375 312.953125 C 284.21875 312.5625 283.847656 312.152344 283.5 311.726562 C 283.148438 311.296875 282.820312 310.855469 282.511719 310.394531 C 282.203125 309.933594 281.921875 309.460938 281.660156 308.972656 C 281.398438 308.488281 281.164062 307.988281 280.953125 307.476562 C 280.742188 306.964844 280.554688 306.445312 280.394531 305.917969 C 280.234375 305.390625 280.101562 304.855469 279.992188 304.3125 C 279.882812 303.769531 279.804688 303.222656 279.75 302.671875 C 279.695312 302.125 279.667969 301.570312 279.667969 301.019531 C 279.667969 300.46875 279.695312 299.914062 279.75 299.367188 C 279.804688 298.816406 279.882812 298.269531 279.992188 297.726562 C 280.101562 297.183594 280.234375 296.648438 280.394531 296.121094 C 280.554688 295.59375 280.742188 295.074219 280.953125 294.5625 C 281.164062 294.050781 281.398438 293.550781 281.660156 293.066406 C 281.921875 292.578125 282.203125 292.105469 282.511719 291.644531 C 282.820312 291.183594 283.148438 290.742188 283.5 290.3125 C 283.847656 289.886719 284.21875 289.476562 284.609375 289.085938 C 285 288.695312 285.410156 288.324219 285.835938 287.976562 C 286.265625 287.625 286.707031 287.296875 287.167969 286.988281 C 287.628906 286.679688 288.101562 286.398438 288.589844 286.136719 C 289.074219 285.875 289.574219 285.640625 290.085938 285.429688 C 290.597656 285.21875 291.117188 285.03125 291.644531 284.871094 C 292.171875 284.710938 292.707031 284.578125 293.25 284.46875 C 293.792969 284.359375 294.339844 284.28125 294.890625 284.226562 C 295.4375 284.171875 295.992188 284.144531 296.542969 284.144531 C 297.09375 284.144531 297.648438 284.171875 298.195312 284.226562 C 298.746094 284.28125 299.292969 284.359375 299.835938 284.46875 C 300.378906 284.578125 300.914062 284.710938 301.441406 284.871094 C 301.96875 285.03125 302.488281 285.21875 303 285.429688 C 303.511719 285.640625 304.011719 285.875 304.496094 286.136719 C 304.984375 286.398438 305.457031 286.679688 305.917969 286.988281 C 306.378906 287.296875 306.820312 287.625 307.25 287.976562 C 307.675781 288.324219 308.085938 288.695312 308.476562 289.085938 C 308.867188 289.476562 309.238281 289.886719 309.585938 290.3125 C 309.9375 290.742188 310.265625 291.183594 310.574219 291.644531 C 310.882812 292.105469 311.164062 292.578125 311.425781 293.066406 C 311.6875 293.550781 311.921875 294.050781 312.132812 294.5625 C 312.34375 295.074219 312.53125 295.59375 312.691406 296.121094 C 312.851562 296.648438 312.984375 297.183594 313.09375 297.726562 C 313.203125 298.269531 313.28125 298.816406 313.335938 299.367188 C 313.390625 299.914062 313.417969 300.46875 313.417969 301.019531 Z M 313.417969 301.019531 " fill-opacity="1" fill-rule="nonzero"/></g><g clip-path="url(#5f616aead3)"><path fill="#1e1e1e" d="M 303.34375 301.058594 C 303.34375 301.503906 303.300781 301.945312 303.214844 302.378906 C 303.128906 302.816406 303 303.238281 302.832031 303.648438 C 302.660156 304.058594 302.453125 304.449219 302.207031 304.816406 C 301.960938 305.1875 301.679688 305.527344 301.363281 305.839844 C 301.050781 306.15625 300.710938 306.4375 300.339844 306.683594 C 299.972656 306.929688 299.582031 307.136719 299.171875 307.308594 C 298.761719 307.476562 298.339844 307.605469 297.902344 307.691406 C 297.46875 307.777344 297.027344 307.820312 296.582031 307.820312 C 296.140625 307.820312 295.699219 307.777344 295.265625 307.691406 C 294.828125 307.605469 294.40625 307.476562 293.996094 307.308594 C 293.585938 307.136719 293.195312 306.929688 292.828125 306.683594 C 292.457031 306.4375 292.117188 306.15625 291.800781 305.839844 C 291.488281 305.527344 291.207031 305.1875 290.960938 304.816406 C 290.714844 304.449219 290.507812 304.058594 290.335938 303.648438 C 290.167969 303.238281 290.039062 302.816406 289.953125 302.378906 C 289.863281 301.945312 289.820312 301.503906 289.820312 301.058594 C 289.820312 300.617188 289.863281 300.175781 289.953125 299.742188 C 290.039062 299.304688 290.167969 298.882812 290.335938 298.472656 C 290.507812 298.0625 290.714844 297.671875 290.960938 297.304688 C 291.207031 296.933594 291.488281 296.59375 291.800781 296.277344 C 292.117188 295.964844 292.457031 295.683594 292.828125 295.4375 C 293.195312 295.191406 293.585938 294.984375 293.996094 294.8125 C 294.40625 294.644531 294.828125 294.515625 295.265625 294.429688 C 295.699219 294.339844 296.140625 294.296875 296.582031 294.296875 C 297.027344 294.296875 297.46875 294.339844 297.902344 294.429688 C 298.339844 294.515625 298.761719 294.644531 299.171875 294.8125 C 299.582031 294.984375 299.972656 295.191406 300.339844 295.4375 C 300.710938 295.683594 301.050781 295.964844 301.363281 296.277344 C 301.679688 296.59375 301.960938 296.933594 302.207031 297.304688 C 302.453125 297.671875 302.660156 298.0625 302.832031 298.472656 C 303 298.882812 303.128906 299.304688 303.214844 299.742188 C 303.300781 300.175781 303.34375 300.617188 303.34375 301.058594 Z M 303.34375 301.058594 " fill-opacity="1" fill-rule="nonzero"/></g><g clip-path="url(#34999f356c)"><path fill="#ffffff" d="M 317.15625 63.398438 C 317.15625 64.125 317.121094 64.847656 317.050781 65.566406 C 316.976562 66.289062 316.871094 67.003906 316.730469 67.714844 C 316.589844 68.425781 316.414062 69.128906 316.203125 69.820312 C 315.992188 70.515625 315.75 71.195312 315.472656 71.867188 C 315.195312 72.535156 314.886719 73.1875 314.542969 73.828125 C 314.203125 74.46875 313.828125 75.089844 313.425781 75.691406 C 313.023438 76.292969 312.59375 76.875 312.132812 77.433594 C 311.675781 77.996094 311.1875 78.53125 310.675781 79.042969 C 310.164062 79.554688 309.625 80.042969 309.066406 80.5 C 308.507812 80.960938 307.925781 81.390625 307.324219 81.792969 C 306.71875 82.199219 306.097656 82.570312 305.460938 82.910156 C 304.820312 83.253906 304.167969 83.5625 303.496094 83.839844 C 302.828125 84.117188 302.148438 84.359375 301.453125 84.570312 C 300.761719 84.78125 300.058594 84.957031 299.347656 85.097656 C 298.636719 85.238281 297.921875 85.347656 297.199219 85.417969 C 296.476562 85.488281 295.753906 85.523438 295.03125 85.523438 C 294.304688 85.523438 293.582031 85.488281 292.863281 85.417969 C 292.140625 85.347656 291.425781 85.238281 290.714844 85.097656 C 290.003906 84.957031 289.300781 84.78125 288.609375 84.570312 C 287.914062 84.359375 287.234375 84.117188 286.5625 83.839844 C 285.894531 83.5625 285.242188 83.253906 284.601562 82.910156 C 283.960938 82.570312 283.339844 82.199219 282.738281 81.792969 C 282.136719 81.390625 281.554688 80.960938 280.996094 80.5 C 280.433594 80.042969 279.898438 79.554688 279.386719 79.042969 C 278.875 78.53125 278.386719 77.996094 277.929688 77.433594 C 277.46875 76.875 277.039062 76.292969 276.632812 75.691406 C 276.230469 75.089844 275.859375 74.46875 275.519531 73.828125 C 275.175781 73.1875 274.867188 72.535156 274.589844 71.867188 C 274.3125 71.195312 274.070312 70.515625 273.859375 69.820312 C 273.648438 69.128906 273.472656 68.425781 273.332031 67.714844 C 273.191406 67.003906 273.082031 66.289062 273.011719 65.566406 C 272.941406 64.847656 272.90625 64.125 272.90625 63.398438 C 272.90625 62.675781 272.941406 61.949219 273.011719 61.230469 C 273.082031 60.507812 273.191406 59.792969 273.332031 59.082031 C 273.472656 58.371094 273.648438 57.667969 273.859375 56.976562 C 274.070312 56.28125 274.3125 55.601562 274.589844 54.933594 C 274.867188 54.261719 275.175781 53.609375 275.519531 52.96875 C 275.859375 52.328125 276.230469 51.710938 276.632812 51.105469 C 277.039062 50.503906 277.46875 49.921875 277.929688 49.363281 C 278.386719 48.800781 278.875 48.265625 279.386719 47.753906 C 279.898438 47.242188 280.433594 46.753906 280.996094 46.296875 C 281.554688 45.835938 282.136719 45.40625 282.738281 45.003906 C 283.339844 44.601562 283.960938 44.226562 284.601562 43.886719 C 285.242188 43.542969 285.894531 43.234375 286.5625 42.957031 C 287.234375 42.679688 287.914062 42.4375 288.609375 42.226562 C 289.300781 42.015625 290.003906 41.839844 290.714844 41.699219 C 291.425781 41.558594 292.140625 41.453125 292.863281 41.378906 C 293.582031 41.308594 294.304688 41.273438 295.03125 41.273438 C 295.753906 41.273438 296.476562 41.308594 297.199219 41.378906 C 297.921875 41.453125 298.636719 41.558594 299.347656 41.699219 C 300.058594 41.839844 300.761719 42.015625 301.453125 42.226562 C 302.148438 42.4375 302.828125 42.679688 303.496094 42.957031 C 304.167969 43.234375 304.820312 43.542969 305.460938 43.886719 C 306.097656 44.226562 306.71875 44.601562 307.324219 45.003906 C 307.925781 45.40625 308.507812 45.835938 309.066406 46.296875 C 309.625 46.753906 310.164062 47.242188 310.675781 47.753906 C 311.1875 48.265625 311.675781 48.800781 312.132812 49.363281 C 312.59375 49.921875 313.023438 50.503906 313.425781 51.105469 C 313.828125 51.710938 314.203125 52.328125 314.542969 52.96875 C 314.886719 53.609375 315.195312 54.261719 315.472656 54.933594 C 315.75 55.601562 315.992188 56.28125 316.203125 56.976562 C 316.414062 57.667969 316.589844 58.371094 316.730469 59.082031 C 316.871094 59.792969 316.976562 60.507812 317.050781 61.230469 C 317.121094 61.949219 317.15625 62.675781 317.15625 63.398438 Z M 317.15625 63.398438 " fill-opacity="1" fill-rule="nonzero"/></g><g clip-path="url(#2a867b1628)"><path fill="#1e1e1e" d="M 308.425781 63.222656 C 308.425781 64.117188 308.339844 64.996094 308.167969 65.871094 C 307.992188 66.746094 307.734375 67.59375 307.394531 68.417969 C 307.054688 69.242188 306.636719 70.023438 306.140625 70.761719 C 305.644531 71.503906 305.082031 72.191406 304.453125 72.820312 C 303.820312 73.449219 303.136719 74.011719 302.394531 74.507812 C 301.65625 75.003906 300.871094 75.421875 300.050781 75.761719 C 299.226562 76.101562 298.378906 76.359375 297.503906 76.535156 C 296.628906 76.707031 295.746094 76.792969 294.855469 76.792969 C 293.964844 76.792969 293.082031 76.707031 292.210938 76.535156 C 291.335938 76.359375 290.488281 76.101562 289.664062 75.761719 C 288.839844 75.421875 288.058594 75.003906 287.316406 74.507812 C 286.578125 74.011719 285.890625 73.449219 285.261719 72.820312 C 284.628906 72.191406 284.066406 71.503906 283.574219 70.761719 C 283.078125 70.023438 282.660156 69.242188 282.320312 68.417969 C 281.976562 67.59375 281.722656 66.746094 281.546875 65.871094 C 281.375 64.996094 281.285156 64.117188 281.285156 63.222656 C 281.285156 62.332031 281.375 61.449219 281.546875 60.578125 C 281.722656 59.703125 281.976562 58.855469 282.320312 58.03125 C 282.660156 57.207031 283.078125 56.425781 283.574219 55.683594 C 284.066406 54.945312 284.628906 54.257812 285.261719 53.628906 C 285.890625 53 286.578125 52.4375 287.316406 51.941406 C 288.058594 51.445312 288.839844 51.027344 289.664062 50.6875 C 290.488281 50.347656 291.335938 50.089844 292.210938 49.914062 C 293.082031 49.742188 293.964844 49.652344 294.855469 49.652344 C 295.746094 49.652344 296.628906 49.742188 297.503906 49.914062 C 298.378906 50.089844 299.226562 50.347656 300.050781 50.6875 C 300.871094 51.027344 301.65625 51.445312 302.394531 51.941406 C 303.136719 52.4375 303.820312 53 304.453125 53.628906 C 305.082031 54.257812 305.644531 54.945312 306.140625 55.683594 C 306.636719 56.425781 307.054688 57.207031 307.394531 58.03125 C 307.734375 58.855469 307.992188 59.703125 308.167969 60.578125 C 308.339844 61.449219 308.425781 62.332031 308.425781 63.222656 Z M 308.425781 63.222656 " fill-opacity="1" fill-rule="nonzero"/></g><g clip-path="url(#e1652ddbec)"><g clip-path="url(#2d4e765b2a)"><path fill="#ffffff" d="M 287.445312 52.585938 L 302.28125 52.585938 L 302.28125 67.195312 L 287.445312 67.195312 Z M 287.445312 52.585938 " fill-opacity="1" fill-rule="nonzero"/></g></g><g clip-path="url(#ea112a2032)"><g clip-path="url(#747bd42375)"><path fill="#ffffff" d="M 146.539062 89.472656 L 162.792969 89.472656 L 162.792969 107.953125 L 146.539062 107.953125 Z M 146.539062 89.472656 " fill-opacity="1" fill-rule="nonzero"/></g></g><g clip-path="url(#d626063ced)"><g clip-path="url(#857b196b71)"><path fill="#ffffff" d="M 176.441406 82.144531 L 198.445312 82.144531 L 198.445312 103.160156 L 176.441406 103.160156 Z M 176.441406 82.144531 " fill-opacity="1" fill-rule="nonzero"/></g></g><g clip-path="url(#4d9dcdb567)"><g clip-path="url(#257ae314d4)"><path fill="#ffffff" d="M 211.910156 89.472656 L 229.6875 89.472656 L 229.6875 106.648438 L 211.910156 106.648438 Z M 211.910156 89.472656 " fill-opacity="1" fill-rule="nonzero"/></g></g><g clip-path="url(#44a43e139d)"><g clip-path="url(#3a510bb504)"><path fill="#ffffff" d="M 276.898438 182.851562 L 296.859375 182.851562 L 296.859375 195.074219 L 276.898438 195.074219 Z M 276.898438 182.851562 " fill-opacity="1" fill-rule="nonzero"/></g></g><g clip-path="url(#86534edd1b)"><g clip-path="url(#629177d6a3)"><path fill="#ffffff" d="M 279.300781 176.625 L 292.949219 176.625 L 292.949219 201.3125 L 279.300781 201.3125 Z M 279.300781 176.625 " fill-opacity="1" fill-rule="nonzero"/></g></g><g clip-path="url(#ad4c86ca1d)"><g clip-path="url(#887a39cd1d)"><g clip-path="url(#38851faacc)"><path fill="#ffffff" d="M 313.808594 113.542969 L 296.570312 105.777344 L 303.933594 89.433594 L 321.171875 97.199219 Z M 313.808594 113.542969 " fill-opacity="1" fill-rule="nonzero"/></g></g></g><g clip-path="url(#09a5649d26)"><g clip-path="url(#a92a07dea9)"><path fill="#ffffff" d="M 292.273438 259.515625 L 306.148438 259.515625 L 306.148438 273.988281 L 292.273438 273.988281 Z M 292.273438 259.515625 " fill-opacity="1" fill-rule="nonzero"/></g></g><g clip-path="url(#bcaf13dca5)"><g clip-path="url(#697f79957e)"><path fill="#ffffff" d="M 250.648438 299.476562 L 266.851562 299.476562 L 266.851562 320.992188 L 250.648438 320.992188 Z M 250.648438 299.476562 " fill-opacity="1" fill-rule="nonzero"/></g></g><g clip-path="url(#80f3817d0e)"><g clip-path="url(#5aa6fc197b)"><path fill="#ffffff" d="M 256.125 303.148438 L 270.519531 303.148438 L 270.519531 314.773438 L 256.125 314.773438 Z M 256.125 303.148438 " fill-opacity="1" fill-rule="nonzero"/></g></g><g clip-path="url(#f6b29b8d0e)"><g clip-path="url(#654663e8a0)"><path fill="#ffffff" d="M 39.976562 238.800781 L 51.148438 238.800781 L 51.148438 260.539062 L 39.976562 260.539062 Z M 39.976562 238.800781 " fill-opacity="1" fill-rule="nonzero"/></g></g><g clip-path="url(#27b739cf71)"><g clip-path="url(#8539056e28)"><path fill="#ffffff" d="M 32.023438 243.148438 L 61.410156 243.148438 L 61.410156 254.101562 L 32.023438 254.101562 Z M 32.023438 243.148438 " fill-opacity="1" fill-rule="nonzero"/></g></g><g clip-path="url(#1d8a4bca35)"><g clip-path="url(#e29f8ea394)"><path fill="#ffffff" d="M 51.148438 70.480469 L 74.023438 70.480469 L 74.023438 93.804688 L 51.148438 93.804688 Z M 51.148438 70.480469 " fill-opacity="1" fill-rule="nonzero"/></g></g><g clip-path="url(#770689cf65)"><g clip-path="url(#8ba98429bf)"><path fill="#ffffff" d="M 47.542969 111.113281 L 62.390625 111.113281 L 62.390625 125.960938 L 47.542969 125.960938 Z M 47.542969 111.113281 " fill-opacity="1" fill-rule="nonzero"/></g></g><g clip-path="url(#86d52f67dc)"><g clip-path="url(#0b54ba3a73)"><path fill="#ffffff" d="M 44.355469 113.550781 L 65.589844 113.550781 L 65.589844 123.523438 L 44.355469 123.523438 Z M 44.355469 113.550781 " fill-opacity="1" fill-rule="nonzero"/></g></g><g clip-path="url(#ea84ccbad0)"><g clip-path="url(#11aeedd208)"><path fill="#ffffff" d="M 304.125 89.699219 L 313.648438 89.699219 L 313.648438 102.757812 L 304.125 102.757812 Z M 304.125 89.699219 " fill-opacity="1" fill-rule="nonzero"/></g></g></svg>
