<?xml version="1.0" encoding="UTF-8"?>
<svg xmlns="http://www.w3.org/2000/svg" viewBox="0 0 250 293" width="250" height="293">
<path d="M54.5 9.76C58.33 11.05 58.91 17.52 61 20.75C65.05 21.51 69.62 20.98 73.75 20.96C83.42 20.9 93.08 21.18 102.75 21.14C130.75 21 158.76 21.49 186.75 21.67C196.76 21.73 206.74 21.58 216.75 21.45C221.47 21.39 227.32 20.49 231.75 22.23C232.52 20.82 232.53 21.09 233.7 21.92C235.18 78.11 236.66 134.31 238.15 190.5C237.62 191.88 238.38 193.74 237.92 195.23C237.74 195.82 237.02 196.1 237.03 196.75C237.06 198.79 239 199.18 237 201.25C239.14 203.33 237.3 204.76 237.5 207.25C237.58 208.24 238.19 208.41 238.48 209.27C239.32 211.75 238.25 214.19 237.5 216.25C237.68 218 237.86 219.75 238.05 221.5C237.85 218.87 236.96 216.43 235.75 214C233.89 215.18 233.96 214.21 232.42 213.25C232.77 213.92 233.13 214.58 233.48 215.25C232.2 216.26 231.53 215.51 230.14 215.25C230.51 217.44 229.56 216.17 228.36 217.06C227.76 217.5 227.82 218.36 227.25 218.83C226.71 215.85 229.31 215.32 229.75 212.97C228.1 214.24 226.74 214.39 225.25 216.03C223.61 215.67 222.32 214.26 221.25 214.74C222.79 216.37 220.67 217.01 219.25 217.41C218.75 216.56 218.25 215.72 217.75 214.87C216.9 215.2 216.18 216.04 215.25 216.1C213.08 216.24 212.43 214.03 211.75 217.35C211.52 217.15 210.92 216.32 210.64 216.22C208.98 215.6 207.03 218.01 205.65 218.51C204.96 218.77 203.77 218.41 203.21 218.78C202.89 219.01 203 219.56 202.75 219.87C201.39 219.71 200.09 218.87 199.08 219.75C199.47 220.5 199.86 221.25 200.25 222C198.06 221.89 198.7 221.51 197.75 220.44C196.19 220.18 196.15 221.68 195.25 222.66C193.14 221.02 193.3 222.29 190.75 222.08C190.82 222.5 191.49 222.86 191.27 223.23C191.16 223.42 181.57 224.57 180.68 224.64C169.54 225.47 158.4 227.15 147.25 228.39C130.45 230.27 113.23 231.93 96.25 234.05C90.02 234.82 74.72 238.34 69.39 236.75C66.83 233.73 67.9 226.62 67.69 222.75C67.01 210.27 66.3 197.74 66.04 185.25C65.73 170.26 65.21 155.16 63.95 140.25C63.5 134.89 63.97 129.21 63.77 123.78C63.35 112.02 63 100.21 62.02 88.5C61.04 76.73 63.14 59.57 60 48.75C60.94 47.17 61.3 45.75 59.5 44.75C61.24 42.63 60.13 31.82 59.96 28.27C59.87 26.17 58.42 25.14 59.71 23.25C57.39 19.65 55.07 16.05 52.75 12.45C49.08 13.7 45.42 14.95 41.75 16.2C40.63 15.83 40.87 16.26 40.5 14.89C42.68 13.17 51.98 9.6 54.5 9.76ZM194 39.16C189.67 39.08 185.33 38.99 181 38.91C180.67 38.73 180.33 38.55 180 38.38C177.96 37.05 171.65 37.11 169.5 38.03C157.5 38.16 145.5 38.3 133.5 38.43C132.04 36.48 123.17 37.43 120.25 37.35C119.86 37.75 119.47 38.16 119.08 38.56C119.06 38.68 119.03 38.8 119 38.92C111.64 39.11 104.28 39.31 96.92 39.5C93.67 39.5 85.3 38.83 83 40.61C82.08 40.57 81.17 40.54 80.25 40.5C80.14 40.61 80.03 40.72 79.92 40.84C79.73 41.08 79.55 41.33 79.36 41.57C73.52 45.2 74.73 52.83 74.97 58.75C75.06 61.01 74.52 64.46 76 66.08C75.95 66.89 75.9 67.69 75.85 68.5C75.66 68.64 75.47 68.78 75.28 68.92C75.22 69.44 75.15 69.97 75.08 70.5C75.16 73.67 75.24 76.83 75.32 80C75.52 80.31 75.71 80.61 75.91 80.92C76.05 80.94 76.18 80.97 76.32 81C76.32 81.33 76.32 81.67 76.32 82C76.07 82.17 75.82 82.33 75.57 82.5C75.66 85.67 75.75 88.83 75.84 92C75.91 93.33 75.99 94.67 76.06 96C76.07 96.33 76.07 96.67 76.08 97C76.09 97.33 76.1 97.67 76.1 98C76.18 100.33 76.25 102.67 76.32 105C76.3 105.25 76.29 105.5 76.27 105.75C76.45 105.83 76.64 105.92 76.83 106C76.84 106.31 76.85 106.61 76.87 106.92C76.77 107.11 76.68 107.31 76.58 107.5C76.66 110.17 76.73 112.83 76.81 115.5C76.85 116.83 76.89 118.17 76.93 119.5C76.98 119.64 77.02 119.78 77.07 119.92C77.18 119.95 77.29 119.98 77.4 120.01C77.34 120.67 77.28 121.34 77.22 122C77.31 123.81 77.41 125.61 77.5 127.42C77.6 127.44 77.69 127.47 77.79 127.5C77.85 128.5 77.91 129.5 77.97 130.5C78.02 132.57 79.21 133.7 79.31 135.75C79.38 137.16 78.68 137.14 78.32 138.27C77.9 139.58 78.54 141.86 78.6 143.25C78.68 144.92 79.46 147.76 78 148.75C78.36 149.5 78.72 150.25 79.08 151C78.41 154.53 77.16 158.2 78.3 161.75C82.3 163.32 88.52 161.96 92.75 161.48C100.15 160.64 107.81 160.23 115.25 159.97C138.09 159.17 160.94 156.59 183.75 155.13C192.67 154.55 201.56 153.91 210.47 153.25C214.14 152.98 218.04 153.25 221.6 152.25C218.74 149.96 214.18 150.86 210.76 150.78C207.53 150.7 204.39 149.92 201.25 149.42C197.94 148.9 194.07 149.44 190.75 149.67C187.9 149.88 181.79 151.61 179.5 150.07C186.86 148.46 194.73 147.69 202.25 147.04C204.25 146.87 209.28 147.56 210 145.29C211.35 144.55 211.71 144.21 212 142.75C212.58 142.14 213.17 141.54 213.75 140.93C213.78 140.99 213.82 141.04 213.85 141.09C214.17 140.81 214.48 140.53 214.79 140.25C217.66 142.78 221.42 144.41 223.25 147.05C224.42 143.49 223.81 138.98 223.8 135.25C223.77 126.26 223.65 117.21 223 108.25C221.69 90.37 222.14 72.18 221.5 54.25C221.31 48.95 221.98 39.43 220.75 34.76C216.62 34.1 211.64 38.31 207.64 39.34C203.22 40.47 198.41 38.44 194 39.16ZM200.7 186.5C200.63 186.49 200.57 186.49 200.5 186.48C198.25 184.4 194.45 186.06 191.73 186.48C189.65 186.81 187.62 185.68 185.75 185.86C184.35 186 182.84 187.23 181.23 187.48C178.94 187.84 176.95 186.89 174.75 186.9C171.74 190.21 168.65 187.43 165.27 187.97C164.66 188.06 164.34 188.79 163.73 188.98C160.4 190.07 156.63 188.29 154.17 191.25C154.47 192.04 154.78 192.82 155.08 193.61C156.62 194.87 160.39 193.88 162.25 193.67C168.18 193.01 174.16 192.39 180.16 191.94C182.47 191.77 185.05 192.17 186.75 190.5C189.71 192.8 196.58 189.96 200.25 189.94C200.5 191.05 200.75 192.15 201 193.25C202.83 193.25 204.67 193.25 206.5 193.25C205.92 191.59 215.9 192.82 217.95 191.5C218.14 191.38 218.32 191.25 218.5 191.13C219.97 188.98 219.6 183.42 218.75 180.98C217.44 181.07 216.13 181.16 214.83 181.25C214.8 182.31 214.78 183.36 214.75 184.42C211.19 185.47 203.24 184.41 200.7 186.5ZM92.07 209.23C89.96 209.33 87.86 209.42 85.75 209.52C87.42 209.62 89.08 209.72 90.75 209.81C91.19 210.79 91.63 211.77 92.07 212.75C92.07 211.58 92.07 210.4 92.07 209.23ZM91.93 213.76C91.93 216.24 91.93 218.72 91.93 221.19C93.68 219.43 92.87 216 91.93 213.76ZM85.5 221.99C85.64 221.85 85.78 221.72 85.92 221.58C86.29 221.66 86.67 221.73 87.04 221.8C87.22 221.8 87.39 221.8 87.57 221.8C87.88 221.72 88.19 221.63 88.5 221.55C88.83 221.2 89.16 220.85 89.49 220.5C89.58 220.55 89.66 220.6 89.75 220.65C89.98 219.85 90.21 219.05 90.45 218.25C90.18 218.12 89.91 217.99 89.64 217.87C89.01 217.07 88.38 216.27 87.75 215.48C85.92 215.61 84.08 215.75 82.25 215.88C80.85 218.2 81.73 220.02 83.25 222.14C84 222.09 84.75 222.04 85.5 221.99Z" fill="#c6b486" fill-rule="evenodd" stroke="#c6b486" stroke-width="0.25" stroke-linejoin="round"/>
<path d="M223.57 257.25C223.28 257.92 222.99 258.58 222.7 259.25C222.49 259.36 222.27 259.47 222.05 259.58C221.62 259.56 221.18 259.53 220.75 259.5C220.51 259.33 220.26 259.17 220.02 259C219.51 258.75 219.01 258.5 218.5 258.25C217.92 257.5 217.33 256.75 216.75 256C216.75 256.62 216.75 257.23 216.75 257.85C216 257.32 215.25 256.78 214.5 256.25C215.32 255 215.67 255.25 217 255.25C216.33 254.42 215.67 253.58 215 252.75C216.42 252.83 217.83 252.92 219.25 253C219.67 251.58 220.08 250.17 220.5 248.75C219.67 248.92 218.83 249.08 218 249.25C218.33 250.08 218.67 250.92 219 251.75C217.6 251.58 217.25 249.42 217.25 248C218.79 247.68 220.62 247.36 222 245.25C221.86 243.1 221.69 242.31 222.5 240.25C221.67 239.58 220.83 238.92 220 238.25C221.15 237.32 221.43 236.03 222.5 236.75C222.25 235.5 222 234.25 221.75 233C219.81 232.45 209.69 233.99 206.75 234.34C195.49 235.71 184.08 236.7 172.73 238.04C162.36 239.26 150.59 239.36 140.5 241.44C134.84 242.6 129.17 242.57 123.5 243.45C115.07 244.77 106.52 245.81 98 246.46C85.42 247.43 72.48 250.42 60.06 250.25C59.2 249.25 58.35 248.25 57.5 247.25C59.24 245.09 59.76 246.16 62 246.25C61.83 245.42 61.67 244.58 61.5 243.75C60.42 243 59.33 242.25 58.25 241.5C56.73 242.02 56.42 241.99 55 241.75C53.12 242.98 53.36 245.67 52.75 247.5C53.82 248.08 54.9 248.67 55.97 249.25C55.33 251.46 55.56 255.05 57.15 256.75C55.61 258.11 57.35 259.6 56 261.75C56.37 262.03 57.65 262.41 57.8 262.7C57.87 262.83 57 266.03 57 266.75C57.01 268.84 58.09 269.62 58.79 271.25C55.46 272.6 58.02 275.12 54.75 276.47C52.56 274.62 53.27 271.62 52.75 269C52.25 269.67 51.75 270.33 51.25 271C50.99 269.73 50.02 269.12 50.4 267.25C52.73 266.96 53.34 267.47 52.75 264.5C52.15 264.75 51.55 265 50.95 265.25C50.4 263.42 50.29 261.25 51.75 260C51.92 261 52.08 262 52.25 263C53.37 261.56 53.09 259.71 52.75 258C52.25 258.5 51.75 259 51.25 259.5C50.65 257.61 51.96 257.2 50.85 256.25C52.57 255.64 52.17 255.48 52.5 253.75C48.96 252.23 51.51 249.31 51.26 247.25C51.06 245.63 50.37 245.44 51.5 243.75C49.55 241.18 50.63 234.89 50.25 232C51.62 231.11 50.74 230.38 51.25 228.76C53.17 229.26 55.08 229.75 57 230.25C58.11 229.05 58.33 228.53 57.35 227.25C55.61 228.49 52.56 226.12 50.5 225.75C48.02 230.24 49.04 235.82 49.12 240.75C49.24 248.07 48.62 255.77 48.75 262.79C46 260.97 49.08 256.55 46.69 256.25C47.57 254.9 47.33 254.14 46.6 252.75C48.43 250.88 47.87 250.05 46.25 249.48C49.11 245.5 38.59 241.13 37.64 237.62C37.44 236.87 37.83 236.56 37.5 235.75C37 235.75 36.5 235.75 36 235.75C36.08 235.17 36.17 234.58 36.25 234C32.13 233.22 31.26 231.22 28.14 228.25C29.87 228.25 29.78 228.32 29.75 226.5C27.31 228.85 25.84 226.04 23.96 224.38C21.02 221.8 14.32 213.55 11 212.75C10.49 214.13 11.42 214.19 11.6 215.27C11.61 215.3 10.05 219.36 9.63 220C9.46 220 9.28 220 9.11 220C9.74 202.6 8.66 185.13 8.29 167.75C7.69 138.75 7.67 109.75 6.85 80.75C6.6 72.29 6.03 63.71 6.18 55.27C6.25 50.87 7.21 46.39 7.62 42C7.97 38.22 7.27 31.07 9.83 28C10.3 28.38 10.78 28.77 11.25 29.15C13.25 28.09 17.89 26.07 19.75 26.61C20.99 25.32 21.39 25.41 23.25 25.65C25.84 22.89 37.47 20 41.77 18.45C43.91 17.67 46.77 16.02 48.75 17.15C50.27 16.03 50.34 15.14 52.25 14.79C53.53 16.35 53.12 24.67 53.2 27.17C53.53 38.02 53.84 48.93 54.49 59.75C55.89 83.04 56.26 106.39 57.22 129.71C58.1 151.22 59.33 172.73 60.1 194.25C60.55 206.93 61.59 219.68 61.78 232.34C61.85 236.81 60.94 244.27 64.6 247.66C67.14 250 71.76 248.31 74.77 247.95C83.77 246.86 92.74 245.71 101.75 244.67C123.92 242.1 145.95 239.15 168.25 237.3C176.84 236.58 185.68 234 194.25 233.92C194.77 233.92 195.13 234.4 195.66 234.35C196.13 234.29 196.71 233.68 197.25 233.55C198.47 233.25 199.79 233.64 201 233.49C206.05 232.85 211.15 231.98 216.25 231.66C219.06 231.49 221.82 230.26 224.25 232C224.02 240.42 223.8 248.83 223.57 257.25ZM213.85 141.09C212.99 138.83 214.7 124.34 214.62 120.5C214.24 102.89 213.86 85.32 213.11 67.75C212.9 62.94 213.13 48.44 211.42 44.84C209.25 40.25 204.11 40.28 199.75 40.11C198.1 40.05 195.03 40.51 194 39.16C198.41 38.44 203.22 40.47 207.64 39.34C211.64 38.31 216.62 34.1 220.75 34.76C221.98 39.43 221.31 48.95 221.5 54.25C222.14 72.18 221.69 90.37 223 108.25C223.65 117.21 223.77 126.26 223.8 135.25C223.81 138.98 224.42 143.49 223.25 147.05C221.42 144.41 217.66 142.78 214.79 140.25C214.48 140.53 214.17 140.81 213.85 141.09ZM119.08 38.56C121.97 38.5 124.86 38.44 127.75 38.38C127.83 38.55 127.92 38.72 128 38.88C125 38.89 122 38.9 119 38.92C119.03 38.8 119.06 38.68 119.08 38.56ZM131 38.86C130.67 38.86 130.33 38.86 130 38.87C130.25 38.68 130.5 38.5 130.75 38.32C130.83 38.5 130.92 38.68 131 38.86ZM180 38.38C180.33 38.55 180.67 38.73 181 38.91C180.33 38.98 179.67 39.06 179 39.13C178.33 39.13 177.67 39.13 177 39.12C175.83 39.05 174.67 38.97 173.5 38.9C173.58 38.73 173.67 38.56 173.75 38.39C175.83 38.38 177.92 38.38 180 38.38ZM91 40.17C90.92 40.32 90.83 40.46 90.75 40.61C89.77 40.6 88.78 40.6 87.8 40.59C88.87 40.45 89.93 40.31 91 40.17ZM83 40.61C84.33 40.61 85.67 40.61 87 40.61C86.92 40.72 86.83 40.84 86.75 40.95C85.58 41.02 84.42 41.08 83.25 41.15C83.17 40.97 83.08 40.79 83 40.61ZM79.36 41.57C79.59 41.54 79.83 41.51 80.06 41.48C79.83 41.51 79.59 41.54 79.36 41.57ZM75.85 68.5C75.66 68.64 75.47 68.78 75.28 68.92C75.47 68.78 75.66 68.64 75.85 68.5ZM76.32 81C76.18 80.97 76.05 80.94 75.91 80.92C75.71 80.61 75.52 80.31 75.32 80C75.24 76.83 75.16 73.67 75.08 70.5C75.31 70.17 75.53 69.83 75.75 69.5C75.94 73.33 76.13 77.17 76.32 81ZM76.32 82C76.3 82.67 76.27 83.33 76.25 84C76.02 83.5 75.8 83 75.57 82.5C75.82 82.33 76.07 82.17 76.32 82ZM76.06 96C75.99 94.67 75.91 93.33 75.84 92C75.97 89.83 76.11 87.67 76.25 85.5C76.47 87.29 77.26 95.37 76.06 96ZM77.4 120.01C77.29 119.98 77.18 119.95 77.07 119.92C77.02 119.78 76.98 119.64 76.93 119.5C76.89 118.17 76.85 116.83 76.81 115.5C76.87 112.92 76.94 110.33 77 107.75C76.86 107.67 76.72 107.58 76.58 107.5C76.68 107.31 76.77 107.11 76.87 106.92C78.7 104.89 77.17 98.89 77.75 96C77.63 104 77.52 112.01 77.4 120.01ZM76.08 97C76.3 97 76.53 97 76.75 97C76.88 99.58 77.01 102.17 77.14 104.75C76.98 104.83 76.82 104.92 76.66 105C76.61 102.75 76.55 100.5 76.5 98.25C76.37 98.17 76.23 98.08 76.1 98C76.1 97.67 76.09 97.33 76.08 97ZM76.32 105C76.43 105 76.55 105 76.66 105C76.72 105.33 76.77 105.67 76.83 106C76.64 105.92 76.45 105.83 76.27 105.75C76.29 105.5 76.3 105.25 76.32 105ZM77.4 120.01C77.53 120.09 77.65 120.17 77.77 120.25C77.78 122.67 77.78 125.08 77.79 127.5C77.69 127.47 77.6 127.44 77.5 127.42C77.41 125.61 77.31 123.81 77.22 122C77.28 121.34 77.34 120.67 77.4 120.01ZM78.58 123.5C78.52 123.58 78.46 123.67 78.4 123.75C78.46 124 78.52 124.25 78.58 124.5C78.58 124.17 78.58 123.83 78.58 123.5ZM78.58 127C78.58 127.5 78.58 128 78.58 128.5C78.58 128 78.58 127.5 78.58 127ZM205 134.08C205.17 135.14 205.33 136.19 205.5 137.25C208.41 138.17 209.01 143 208.25 145.5C208.83 145.43 209.42 145.36 210 145.29C209.28 147.56 204.25 146.87 202.25 147.04C194.73 147.69 186.86 148.46 179.5 150.07C172.5 150.62 165.5 151.17 158.5 151.72C159.86 149.81 162.57 150.57 164.75 150.19C157.97 149.56 151.48 150.8 144.75 150.68C136.45 150.54 128.13 149.08 119.79 149.22C114.57 149.31 101.14 150.55 97.36 147.25C101.57 145.1 110.43 146.72 113 144.96C116.67 144.72 120.33 144.48 124 144.24C124.67 144.41 125.33 144.58 126 144.75C124.97 145.07 124.84 144.92 125 145.75C126.24 146.67 125.79 145.32 127.16 145.59C128.34 145.84 129.87 146.87 131 147.25C131.61 145.27 129.84 144.81 128.5 144.06C129.67 143.92 130.83 143.79 132 143.65C132.42 144.15 132.83 144.65 133.25 145.15C134.75 144.93 136.25 144.72 137.75 144.5C138.44 146.81 140.63 146.7 140.25 149C140.99 148.86 141.71 148.27 142.25 148.19C143.17 148.05 144.24 149.05 145.23 148.98C148.22 148.79 151.31 147.72 154.33 147.61C155.59 147.56 157.08 148.34 158.33 148.39C163.65 148.59 169.51 148.27 175.06 147.92C175.9 147.98 179.66 147.45 180.14 147.87C181.69 149.19 178.35 149.28 179.75 149.5C181.08 149.17 182.42 148.84 183.75 148.51C180.04 144.89 173.38 150.63 171.75 142.5C169.78 142.5 164.29 142.73 162.98 141.77C164.82 141.64 166.66 141.5 168.5 141.36C171.5 141.49 174.5 141.62 177.5 141.75C177.17 141.55 176.83 141.35 176.5 141.14C182.83 140.73 189.17 140.32 195.5 139.91C198.33 140.02 201.17 140.14 204 140.25C204.33 138.19 204.67 136.14 205 134.08ZM79.92 150.8C80.11 150.89 80.31 150.98 80.5 151.07C80.5 151.21 80.51 151.34 80.51 151.48C80.32 151.48 80.14 151.47 79.96 151.47C79.95 151.25 79.93 151.02 79.92 150.8ZM80.51 151.48C80.63 151.53 80.76 151.58 80.89 151.63C80.93 151.75 80.97 151.87 81.01 151.99C80.83 152 80.65 152.01 80.47 152.03C80.48 151.85 80.49 151.66 80.51 151.48ZM81.01 151.99C81.11 151.99 81.21 152 81.3 152C81.25 152.18 81.19 152.36 81.13 152.54C81.09 152.36 81.05 152.17 81.01 151.99ZM146 151.9C147.83 152.02 149.67 152.13 151.5 152.25C151.33 152.39 151.17 152.54 151 152.68C150.17 152.72 149.33 152.77 148.5 152.81C148.42 152.71 148.33 152.6 148.25 152.5C147.17 152.52 146.08 152.55 145 152.57C145.33 152.35 145.67 152.12 146 151.9ZM85 154.12C89.87 153.36 95.29 153.94 100.25 153.87C102.07 153.84 104.57 153.36 106 154.39C105.5 154.52 105 154.64 104.5 154.77C104.42 154.59 104.33 154.42 104.25 154.24C102.25 154.28 100.25 154.32 98.25 154.37C98.17 154.53 98.08 154.68 98 154.84C97.67 154.84 97.33 154.84 97 154.84C96.83 154.84 96.67 154.84 96.5 154.84C96.17 154.84 95.83 154.84 95.5 154.84C95.42 154.69 95.33 154.54 95.25 154.39C94.08 154.4 92.92 154.4 91.75 154.41C91.67 154.56 91.58 154.71 91.5 154.86C91.17 154.86 90.83 154.86 90.5 154.86C90.42 154.71 90.33 154.57 90.25 154.42C89.25 154.41 88.25 154.41 87.25 154.4C87.17 154.55 87.08 154.7 87 154.84C86.83 154.84 86.67 154.84 86.5 154.83C86.42 154.68 86.33 154.53 86.25 154.38C85.84 154.39 85.42 154.41 85.01 154.43C85 154.33 85 154.22 85 154.12ZM200.5 186.48C200.5 186.59 200.5 186.69 200.5 186.79C199.17 186.91 197.83 187.03 196.5 187.14C196.33 187.01 196.17 186.88 196 186.75C197.5 186.66 199 186.57 200.5 186.48ZM193.5 187.34C192.33 187.43 191.17 187.52 190 187.6C190.08 187.44 190.17 187.27 190.25 187.1C191.25 187.01 192.25 186.92 193.25 186.83C193.33 187 193.42 187.17 193.5 187.34ZM187.5 187.67C187.42 187.78 187.33 187.89 187.25 188.01C186.33 188 185.42 188 184.5 188C184.58 187.88 184.67 187.76 184.75 187.64C185.67 187.65 186.58 187.66 187.5 187.67ZM181.5 188.13C181.47 188.25 181.44 188.38 181.42 188.5C181.28 188.54 181.14 188.58 181 188.62C180.83 188.62 180.67 188.62 180.5 188.62C179.59 188.5 178.68 188.37 177.76 188.25C179.01 188.21 180.25 188.17 181.5 188.13ZM210.78 187.95C211.3 187.97 211.81 187.99 212.33 188.01C212.46 188.25 212.6 188.5 212.73 188.75C212.7 189.02 212.68 189.29 212.65 189.56C212.25 189.69 211.84 189.81 211.44 189.93C211.22 189.94 211.01 189.95 210.79 189.96C210.78 189.89 210.76 189.83 210.75 189.76C209.86 189.59 208.97 189.42 208.08 189.25C208.55 188.97 209.03 188.7 209.51 188.42C209.92 188.34 210.34 188.26 210.75 188.17C210.76 188.1 210.77 188.02 210.78 187.95ZM176.5 188.86C175.43 188.91 174.36 188.95 173.28 189C174.27 188.81 175.26 188.62 176.25 188.43C176.33 188.57 176.42 188.72 176.5 188.86ZM177.5 188.81C177.33 188.82 177.17 188.83 177 188.84C177.17 188.83 177.33 188.82 177.5 188.81ZM170.5 189.13C170.42 189.26 170.33 189.4 170.25 189.53C169.12 189.55 167.98 189.57 166.85 189.6C168.07 189.44 169.28 189.28 170.5 189.13ZM204.51 188.9C204.92 189.02 205.34 189.13 205.75 189.24C205.81 189.51 205.88 189.78 205.94 190.06C205.08 189.95 204.21 189.85 203.35 189.75C203.73 189.47 204.12 189.19 204.51 188.9ZM165.5 189.64C165.42 189.75 165.33 189.86 165.25 189.97C164.11 189.98 162.97 189.98 161.82 189.99C163.05 189.87 164.27 189.76 165.5 189.64ZM199 189.37C199.68 189.56 200.37 189.75 201.05 189.94C200.03 189.88 199.02 189.81 198 189.75C198.33 189.62 198.67 189.49 199 189.37ZM159 190.14C158.67 190.3 158.33 190.46 158 190.61C157.38 190.49 156.76 190.37 156.15 190.25C157.1 190.21 158.05 190.18 159 190.14ZM201.05 189.94C201.18 190.28 201.32 190.61 201.45 190.95C201.32 190.61 201.18 190.28 201.05 189.94ZM156 190.85C155.8 190.92 155.61 190.98 155.41 191.05C155.61 190.98 155.8 190.92 156 190.85ZM218.5 191.13C218.32 191.25 218.14 191.38 217.95 191.5C218.14 191.38 218.32 191.25 218.5 191.13ZM155.15 193C155.13 193.2 155.1 193.41 155.08 193.61C155.1 193.41 155.13 193.2 155.15 193ZM89.64 217.87C89.35 218.74 89.05 219.62 88.75 220.5C89 220.5 89.24 220.5 89.49 220.5C89.16 220.85 88.83 221.2 88.5 221.55C88.25 221.03 88 220.52 87.75 220C86.92 220.35 86.08 220.71 85.25 221.06C84.35 220.13 84.57 219.82 83.43 220.57C83.17 219.8 82.91 219.02 82.64 218.25C84.98 218.12 87.31 217.99 89.64 217.87ZM83.43 220.57C83.7 220.55 83.98 220.52 84.25 220.5C84.5 220.75 84.75 221 85 221.25C84.58 221.2 84.17 221.15 83.75 221.09C83.64 220.92 83.54 220.74 83.43 220.57ZM85.92 221.58C85.78 221.72 85.64 221.85 85.5 221.99C85.64 221.85 85.78 221.72 85.92 221.58ZM87.04 221.8C87.22 221.8 87.39 221.8 87.57 221.8C87.39 221.8 87.22 221.8 87.04 221.8Z" fill="#6b6548" fill-rule="evenodd" stroke="#6b6548" stroke-width="0.25" stroke-linejoin="round"/>
<path d="M204.63 134C204.34 135.69 204.04 137.38 203.75 139.06C201.34 140.06 198.06 140.64 195.5 139.91C189.17 140.32 182.83 140.73 176.5 141.14C173.83 141.22 171.17 141.29 168.5 141.36C166.66 141.5 164.82 141.64 162.98 141.77C160.48 141.96 157.99 142.15 155.5 142.34C147.67 142.77 139.83 143.21 132 143.65C130.83 143.79 129.67 143.92 128.5 144.06C127 144.12 125.5 144.18 124 144.24C120.33 144.48 116.67 144.72 113 144.96C102.75 145.34 92.5 145.72 82.25 146.09C79.87 142.6 81.04 129.87 81.02 125.25C80.92 107.77 80.53 90.2 79.5 72.75C79.21 67.76 79.23 62.73 78.85 57.75C78.65 55.16 77.41 53.43 79.25 51.13C95.83 50.77 112.42 50.4 129 50.03C127.65 52.01 121.14 51.12 118.75 51.14C109 51.23 98.84 50.64 89.17 51.75C89.36 53.16 89.56 54.56 89.75 55.97C126.92 55.37 164.08 54.77 201.25 54.17C201.12 53.03 200.99 51.89 200.87 50.75C196.46 49.04 179.38 50.32 173.75 50.28C171.15 50.27 165.83 51.16 164 49.53C171.28 47.94 183.35 49.29 191.25 49.17C194.5 49.12 199.01 48.3 201.74 50.25C202.48 52.39 202.09 54.45 202.23 56.66C202.59 62.75 202.97 68.92 203.45 75C204.26 85.11 204.31 95.33 204.44 105.5C204.57 114.9 205.5 124.62 204.63 134ZM169.87 52.25C168.81 53.69 156.33 53.71 155.17 52.25C155.75 51.72 169.28 51.76 169.87 52.25ZM80.46 51.97C78.55 52.97 78.86 54.99 80.46 56.06C80.46 54.7 80.46 53.33 80.46 51.97ZM83.25 51.89C80.67 52.19 81.24 54.29 82.04 56.32C84.11 56.32 86.18 56.32 88.25 56.32C88.34 53.96 88.5 52.56 86.24 51.81C86.24 52.79 86.24 53.77 86.24 54.75C82.72 56.12 84.29 53.23 83.25 51.89ZM103.88 53.75C103.23 54.49 91.22 55.36 90.38 54.84C89.41 54.24 90.03 53.05 90.23 52.25C91.46 52.22 92.47 53.04 93.75 53.03C96.39 53.01 102.04 51.56 103.88 53.75ZM151.58 52.75C149.44 54.4 136.7 53.74 133.71 53.25C134.38 52.42 136.27 52.26 137.64 52.25C139.55 52.24 141.51 52.86 143.29 52.92C145.9 53.01 149.18 51.08 151.58 52.75ZM129.91 53.25C124.86 53.79 119.8 54.33 114.75 54.87C112.88 54.5 111.01 54.12 109.13 53.75C110.36 52.24 122.58 52.53 125.25 52.56C126.93 52.58 128.89 52.13 129.91 53.25ZM175 73.25C154.42 74.05 133.83 74.84 113.25 75.64C113.84 87.51 114.43 99.38 115.02 111.25C135.43 110.29 155.84 109.33 176.25 108.37C175.83 96.67 175.42 84.96 175 73.25ZM162.8 88.25C161.34 89.45 157.2 89.48 156.03 88.25C157.21 87.92 158.38 87.58 159.56 87.25C160.64 87.58 161.72 87.92 162.8 88.25ZM150.04 88.25C149.11 89.88 141.87 89.66 140.95 88.75C142.36 87.89 148.77 87.34 150.04 88.25ZM132.71 89.25C131.11 90.37 128.32 90.57 128.16 88.25C129.68 88.58 131.19 88.92 132.71 89.25ZM139.94 88.75C138.71 90.5 135.68 89.94 134.1 88.75C135.31 87.5 138.25 88.25 139.94 88.75ZM170.75 90.91C169.51 90.28 169.14 89.67 169.36 88.25C171.23 88.24 171.59 89.31 170.75 90.91ZM174.01 106.18C172.76 107.38 168.25 107.46 167.25 106.18C169.5 106.18 171.76 106.18 174.01 106.18ZM196.25 128.28C194.9 129.78 195.25 130.98 194.29 132.56C193.25 134.27 191.9 132.81 192.25 135.74C193.75 135.74 195.25 135.74 196.75 135.74C196.58 135.22 196.42 134.69 196.25 134.17C198.57 134.06 198.03 134.54 199.25 135.76C201.34 133.6 198.86 133.23 197.25 132.59C196.92 131.15 196.58 129.71 196.25 128.28Z" fill="#9fb4c4" fill-rule="evenodd" stroke="#9fb4c4" stroke-width="0.25" stroke-linejoin="round"/>
<path d="M163 49.53C159.31 49.54 155.61 49.56 151.92 49.58C150.28 49.3 148.64 49.03 147 48.75C147.92 48.5 148.83 48.25 149.75 48C148.25 48 146.75 48 145.25 48C145.67 48.25 146.08 48.5 146.5 48.75C144.33 48.75 142.17 48.75 140 48.75C141.31 50.01 143.28 49.12 145 49.83C140 49.88 135 49.92 130 49.97C127.19 48.3 120.18 51.45 118.5 48.25C120.04 47.48 120.78 47.51 121.75 49C122.25 48 122.75 47 123.25 46C124.25 45.83 125.25 45.67 126.25 45.5C126.83 44.75 127.42 44 128 43.25C129.97 43.25 130.49 43.04 131.75 41.35C134.88 42.46 134.63 41.6 137.75 41.5C139.48 41.44 145.12 40.78 146.23 40.95C146.88 41.04 147.01 41.78 147.67 41.89C150.22 42.34 153.35 40.97 155.75 40.39C157.45 39.98 159.15 40.73 160.75 40.76C161.44 40.77 162.05 40.24 162.73 40.41C163.36 40.55 163.62 41.27 164.27 41.48C167.11 42.42 170.78 41.58 172.75 44C175.16 44 175.79 43.54 177.25 45C180.05 44.81 181.99 46.28 184.77 46.48C188.28 46.74 191.68 44.93 194.5 47.75C187.55 49.81 178.96 48.34 171.75 49C169.16 49.24 165.09 48.13 163 49.53ZM161.5 47.25C159.58 46.3 157.1 47.07 155.25 48C153.59 47.17 152.31 46.99 151 48.25C153.74 48.8 159.26 48.99 161.5 47.25ZM76 66.08C76.25 70.06 76.5 74.03 76.75 78C77.31 75.22 75.91 69.92 77.75 68C79.01 74.28 79.5 80.59 79.5 87.25C79.5 89.48 78.8 91.53 79 93.75C79.2 96 80 97.91 80 100.25C80 104.41 79.63 108.81 80.41 112.84C80.53 113.5 80.74 116.17 79.66 116.38C79.09 116.48 78.73 114.99 78.5 114.75C78.53 117.67 78.56 120.58 78.58 123.5C78.58 123.83 78.58 124.17 78.58 124.5C78.58 125.33 78.58 126.17 78.58 127C78.58 127.5 78.58 128 78.58 128.5C78.56 129.08 78.53 129.67 78.5 130.25C78.32 130.33 78.15 130.42 77.97 130.5C77.91 129.5 77.85 128.5 77.79 127.5C77.78 125.08 77.78 122.67 77.77 120.25C77.65 120.17 77.53 120.09 77.4 120.01C77.52 112.01 77.63 104 77.75 96C77.17 98.89 78.7 104.89 76.87 106.92C76.85 106.61 76.84 106.31 76.83 106C76.77 105.67 76.72 105.33 76.66 105C76.82 104.92 76.98 104.83 77.14 104.75C77.01 102.17 76.88 99.58 76.75 97C76.53 97 76.3 97 76.08 97C76.07 96.67 76.07 96.33 76.06 96C77.26 95.37 76.47 87.29 76.25 85.5C76.11 87.67 75.97 89.83 75.84 92C75.75 88.83 75.66 85.67 75.57 82.5C75.8 83 76.02 83.5 76.25 84C76.27 83.33 76.3 82.67 76.32 82C76.32 81.67 76.32 81.33 76.32 81C76.13 77.17 75.94 73.33 75.75 69.5C75.53 69.83 75.31 70.17 75.08 70.5C75.15 69.97 75.22 69.44 75.28 68.92C75.47 68.78 75.66 68.64 75.85 68.5C75.9 67.69 75.95 66.89 76 66.08ZM76.1 98C76.23 98.08 76.37 98.17 76.5 98.25C76.55 100.5 76.61 102.75 76.66 105C76.55 105 76.43 105 76.32 105C76.25 102.67 76.18 100.33 76.1 98ZM76.58 107.5C76.72 107.58 76.86 107.67 77 107.75C76.94 110.33 76.87 112.92 76.81 115.5C76.73 112.83 76.66 110.17 76.58 107.5ZM77.22 122C77.31 123.81 77.41 125.61 77.5 127.42C77.41 125.61 77.31 123.81 77.22 122ZM204.63 134C204.76 134.03 204.88 134.06 205 134.08C204.67 136.14 204.33 138.19 204 140.25C201.17 140.14 198.33 140.02 195.5 139.91C198.06 140.64 201.34 140.06 203.75 139.06C204.04 137.38 204.34 135.69 204.63 134ZM176.5 141.14C176.83 141.35 177.17 141.55 177.5 141.75C174.5 141.62 171.5 141.49 168.5 141.36C171.17 141.29 173.83 141.22 176.5 141.14ZM155.5 142.34C156.25 142.67 157 143.01 157.75 143.34C158.25 144.03 157.9 144.58 158.43 145.29C159.9 147.3 172.03 146.86 175.06 147.92C169.51 148.27 163.65 148.59 158.33 148.39C157.08 148.34 155.59 147.56 154.33 147.61C151.31 147.72 148.22 148.79 145.23 148.98C144.24 149.05 143.17 148.05 142.25 148.19C141.71 148.27 140.99 148.86 140.25 149C140.63 146.7 138.44 146.81 137.75 144.5C136.25 144.72 134.75 144.93 133.25 145.15C132.83 144.65 132.42 144.15 132 143.65C139.83 143.21 147.67 142.77 155.5 142.34ZM143.95 143.5C143.95 144.29 143.95 145.08 143.95 145.86C144.66 147.44 146.23 147.23 147.88 146.75C148.12 146.08 148.36 145.42 148.59 144.75C146.85 143.83 145.99 143.5 143.95 143.5ZM154 152.19C153.5 152.38 153 152.56 152.5 152.75C152 152.73 151.5 152.7 151 152.68C151.17 152.54 151.33 152.39 151.5 152.25C149.67 152.13 147.83 152.02 146 151.9C146.08 151.77 146.17 151.63 146.25 151.5C148.25 151.5 150.25 151.5 152.25 151.5C152.83 151.73 153.42 151.96 154 152.19ZM145 152.57C146.08 152.55 147.17 152.52 148.25 152.5C148.33 152.6 148.42 152.71 148.5 152.81C147.42 152.85 146.33 152.9 145.25 152.94C145.17 152.82 145.08 152.69 145 152.57ZM210.78 187.95C210.77 188.02 210.76 188.1 210.75 188.17C210.34 188.26 209.92 188.34 209.51 188.42C209.76 188.21 210 187.99 210.25 187.77C210.43 187.83 210.61 187.89 210.78 187.95ZM212.33 188.01C213.03 188.09 213.74 188.17 214.45 188.25C213.85 188.69 213.25 189.12 212.65 189.56C212.68 189.29 212.7 189.02 212.73 188.75C212.6 188.5 212.46 188.25 212.33 188.01ZM209.51 188.42C209.03 188.7 208.55 188.97 208.08 189.25C208.97 189.42 209.86 189.59 210.75 189.76C210.76 189.83 210.78 189.89 210.79 189.96C209.18 189.99 207.56 190.02 205.94 190.06C205.88 189.78 205.81 189.51 205.75 189.24C205.34 189.13 204.92 189.02 204.51 188.9C204.59 188.72 204.67 188.53 204.75 188.35C206.34 188.37 207.92 188.4 209.51 188.42ZM204.51 188.9C204.12 189.19 203.73 189.47 203.35 189.75C204.21 189.85 205.08 189.95 205.94 190.06C205.88 190.24 205.81 190.43 205.75 190.61C204.32 190.72 202.88 190.83 201.45 190.95C201.32 190.61 201.18 190.28 201.05 189.94C200.37 189.75 199.68 189.56 199 189.37C199.08 189.2 199.17 189.04 199.25 188.88C201 188.89 202.76 188.9 204.51 188.9ZM212.65 189.56C212.25 189.69 211.84 189.81 211.44 189.93C211.84 189.81 212.25 189.69 212.65 189.56ZM220.02 259C219.2 259.51 209.83 259.77 207.75 259.93C197.82 260.68 187.86 261.68 178 262.96C148.79 266.76 119.64 269.76 90.5 273.99C83.09 275.06 75.38 275.55 68 276.98C64.26 277.71 59.87 279.11 56.03 278.24C51.83 277.28 48.6 271.43 45.81 268.41C38.09 260.08 30.22 252.1 22.58 243.66C20.58 241.45 13.19 232.17 10.5 234.25C11.54 235.24 13.46 235.46 11.47 237.05C9.02 235.46 10.47 233.63 10.36 231.28C10.13 226.36 7.64 225.33 9.11 220C9.28 220 9.46 220 9.63 220C10.06 222.16 16.36 228.47 18.5 229.25C19.13 226.83 12.89 222.07 10.98 220.75C10.53 220.5 10.08 220.25 9.63 220C10.05 219.36 11.61 215.3 11.6 215.27C11.42 214.19 10.49 214.13 11 212.75C14.32 213.55 21.02 221.8 23.96 224.38C25.84 226.04 27.31 228.85 29.75 226.5C29.78 228.32 29.87 228.25 28.14 228.25C31.26 231.22 32.13 233.22 36.25 234C36.17 234.58 36.08 235.17 36 235.75C36.5 235.75 37 235.75 37.5 235.75C37.83 236.56 37.44 236.87 37.64 237.62C38.59 241.13 49.11 245.5 46.25 249.48C47.87 250.05 48.43 250.88 46.6 252.75C47.33 254.14 47.57 254.9 46.69 256.25C49.08 256.55 46 260.97 48.75 262.79C48.62 255.77 49.24 248.07 49.12 240.75C49.04 235.82 48.02 230.24 50.5 225.75C52.56 226.12 55.61 228.49 57.35 227.25C58.33 228.53 58.11 229.05 57 230.25C55.08 229.75 53.17 229.26 51.25 228.76C50.74 230.38 51.62 231.11 50.25 232C50.63 234.89 49.55 241.18 51.5 243.75C50.37 245.44 51.06 245.63 51.26 247.25C51.51 249.31 48.96 252.23 52.5 253.75C52.17 255.48 52.57 255.64 50.85 256.25C51.96 257.2 50.65 257.61 51.25 259.5C51.75 259 52.25 258.5 52.75 258C53.09 259.71 53.37 261.56 52.25 263C52.08 262 51.92 261 51.75 260C50.29 261.25 50.4 263.42 50.95 265.25C51.55 265 52.15 264.75 52.75 264.5C53.34 267.47 52.73 266.96 50.4 267.25C50.02 269.12 50.99 269.73 51.25 271C51.75 270.33 52.25 269.67 52.75 269C53.27 271.62 52.56 274.62 54.75 276.47C58.02 275.12 55.46 272.6 58.79 271.25C58.09 269.62 57.01 268.84 57 266.75C57 266.03 57.87 262.83 57.8 262.7C57.65 262.41 56.37 262.03 56 261.75C57.35 259.6 55.61 258.11 57.15 256.75C55.56 255.05 55.33 251.46 55.97 249.25C54.9 248.67 53.82 248.08 52.75 247.5C53.36 245.67 53.12 242.98 55 241.75C56.42 241.99 56.73 242.02 58.25 241.5C59.33 242.25 60.42 243 61.5 243.75C61.67 244.58 61.83 245.42 62 246.25C59.76 246.16 59.24 245.09 57.5 247.25C58.35 248.25 59.2 249.25 60.06 250.25C72.48 250.42 85.42 247.43 98 246.46C106.52 245.81 115.07 244.77 123.5 243.45C129.17 242.57 134.84 242.6 140.5 241.44C150.59 239.36 162.36 239.26 172.73 238.04C184.08 236.7 195.49 235.71 206.75 234.34C209.69 233.99 219.81 232.45 221.75 233C222 234.25 222.25 235.5 222.5 236.75C221.43 236.03 221.15 237.32 220 238.25C220.83 238.92 221.67 239.58 222.5 240.25C221.69 242.31 221.86 243.1 222 245.25C220.62 247.36 218.79 247.68 217.25 248C217.25 249.42 217.6 251.58 219 251.75C218.67 250.92 218.33 250.08 218 249.25C218.83 249.08 219.67 248.92 220.5 248.75C220.08 250.17 219.67 251.58 219.25 253C217.83 252.92 216.42 252.83 215 252.75C215.67 253.58 216.33 254.42 217 255.25C215.67 255.25 215.32 255 214.5 256.25C215.25 256.78 216 257.32 216.75 257.85C216.75 257.23 216.75 256.62 216.75 256C217.33 256.75 217.92 257.5 218.5 258.25C219.01 258.5 219.51 258.75 220.02 259ZM10.25 225.5C10.58 227.09 11.63 229.56 13 228.25C12.08 227.33 11.17 226.42 10.25 225.5ZM20.25 228.86C19.5 230.66 18.75 232.45 18 234.25C18.58 235.17 19.17 236.08 19.75 237C20.54 236.77 21.56 237.3 22.2 236.78C22.67 236.4 21.55 234.75 21.88 234.26C22.54 233.3 22.88 234.69 23.34 234.88C23.98 235.13 23.36 234.68 24 234.75C23.5 233.82 22.62 233.3 22.17 232.33C21.44 230.74 23.27 228.8 20.25 228.86ZM15.75 229C15.3 229.17 14.85 229.33 14.4 229.5C14.4 230.33 14.4 231.17 14.4 232C15.02 232.17 15.63 232.33 16.25 232.5C16.83 232.25 17.42 232 18 231.75C17.25 230.83 16.5 229.92 15.75 229ZM35.25 244C36.12 243.02 32.04 238.76 30.5 238.25C32.08 240.17 33.67 242.08 35.25 244ZM211.75 238C211.33 239.92 210.92 241.83 210.5 243.75C213.78 246.98 210.35 250.63 207 251.75C205.02 252.41 202.81 251.7 200.77 252.02C197.63 252.51 194.34 252.86 191.23 253.48C189.19 253.89 186.59 252.66 185.5 254.75C187.1 255.99 190.86 254.98 192.84 254.59C195.45 254.09 198.12 254.39 200.73 253.98C202.48 253.71 204.12 252.94 205.84 252.59C208.04 252.15 210.15 253.02 211.89 251.25C212.39 248.92 213.29 239.76 211.75 238ZM209.56 240.5C206.96 238.83 203.79 238.67 201.27 240.75C200.75 243.61 200.23 247.18 201.59 249.83C204.24 249.83 206.9 249.83 209.56 249.83C209.56 246.72 209.56 243.61 209.56 240.5ZM36.75 247.5C34.25 245.08 31.74 242.67 29.24 240.25C30.35 241.66 36.15 248 36.75 247.5ZM41.5 246.75C41.95 246.2 38.09 241.77 37 242.75C38.5 244.08 40 245.42 41.5 246.75ZM193.5 245.25C192.28 243.39 189.75 244.21 187.87 245C187.87 245.83 187.87 246.67 187.87 247.5C189.66 247.1 192.86 247.27 193.5 245.25ZM31.75 245.5C31.78 247.7 34.53 248.39 35.5 250.25C35.79 249.07 33.08 246.37 31.75 245.5ZM37.75 248.5C37.31 249.23 40.73 252.55 42 252.75C40.58 251.33 39.17 249.92 37.75 248.5ZM41.75 256.5C40.17 254.75 38.58 253 37 251.25C38.58 253 40.17 254.75 41.75 256.5Z" fill="#4b4235" fill-rule="evenodd" stroke="#4b4235" stroke-width="0.25" stroke-linejoin="round"/>
<path d="M169.5 38.03C169.58 38.27 169.67 38.52 169.75 38.76C171 38.8 172.25 38.85 173.5 38.9C174.67 38.97 175.83 39.05 177 39.12C177.67 39.13 178.33 39.13 179 39.13C179.67 39.06 180.33 38.98 181 38.91C185.33 38.99 189.67 39.08 194 39.16C195.03 40.51 198.1 40.05 199.75 40.11C204.11 40.28 209.25 40.25 211.42 44.84C213.13 48.44 212.9 62.94 213.11 67.75C213.86 85.32 214.24 102.89 214.62 120.5C214.7 124.34 212.99 138.83 213.85 141.09C213.82 141.04 213.78 140.99 213.75 140.93C213.17 141.54 212.58 142.14 212 142.75C211.71 144.21 211.35 144.55 210 145.29C209.42 145.36 208.83 145.43 208.25 145.5C209.01 143 208.41 138.17 205.5 137.25C205.33 136.19 205.17 135.14 205 134.08C204.88 134.06 204.76 134.03 204.63 134C205.5 124.62 204.57 114.9 204.44 105.5C204.31 95.33 204.26 85.11 203.45 75C202.97 68.92 202.59 62.75 202.23 56.66C202.09 54.45 202.48 52.39 201.74 50.25C199.01 48.3 194.5 49.12 191.25 49.17C183.35 49.29 171.28 47.94 164 49.53C163.67 49.53 163.33 49.53 163 49.53C165.09 48.13 169.16 49.24 171.75 49C178.96 48.34 187.55 49.81 194.5 47.75C191.68 44.93 188.28 46.74 184.77 46.48C181.99 46.28 180.05 44.81 177.25 45C175.79 43.54 175.16 44 172.75 44C170.78 41.58 167.11 42.42 164.27 41.48C163.62 41.27 163.36 40.55 162.73 40.41C162.05 40.24 161.44 40.77 160.75 40.76C159.15 40.73 157.45 39.98 155.75 40.39C153.35 40.97 150.22 42.34 147.67 41.89C147.01 41.78 146.88 41.04 146.23 40.95C145.12 40.78 139.48 41.44 137.75 41.5C134.63 41.6 134.88 42.46 131.75 41.35C130.49 43.04 129.97 43.25 128 43.25C127.42 44 126.83 44.75 126.25 45.5C125.25 45.67 124.25 45.83 123.25 46C122.75 47 122.25 48 121.75 49C120.78 47.51 120.04 47.48 118.5 48.25C120.18 51.45 127.19 48.3 130 49.97C129.67 49.99 129.33 50.01 129 50.03C112.42 50.4 95.83 50.77 79.25 51.13C77.41 53.43 78.65 55.16 78.85 57.75C79.23 62.73 79.21 67.76 79.5 72.75C80.53 90.2 80.92 107.77 81.02 125.25C81.04 129.87 79.87 142.6 82.25 146.09C92.5 145.72 102.75 145.34 113 144.96C110.43 146.72 101.57 145.1 97.36 147.25C101.14 150.55 114.57 149.31 119.79 149.22C128.13 149.08 136.45 150.54 144.75 150.68C151.48 150.8 157.97 149.56 164.75 150.19C162.57 150.57 159.86 149.81 158.5 151.72C158.33 151.9 158.17 152.07 158 152.25C156.67 152.23 155.33 152.21 154 152.19C153.42 151.96 152.83 151.73 152.25 151.5C150.25 151.5 148.25 151.5 146.25 151.5C146.17 151.63 146.08 151.77 146 151.9C145.67 152.12 145.33 152.35 145 152.57C141.95 153.68 137.34 153.41 134.25 153.39C125.11 153.32 115.07 153.34 106 154.39C104.57 153.36 102.07 153.84 100.25 153.87C95.29 153.94 89.87 153.36 85 154.12C84.33 154 83.67 153.87 83 153.75C82.5 153.58 82 153.42 81.5 153.25C81.38 153.01 81.25 152.78 81.13 152.54C81.19 152.36 81.25 152.18 81.3 152C81.17 151.88 81.03 151.76 80.89 151.63C80.76 151.45 80.63 151.26 80.5 151.07C80.31 150.98 80.11 150.89 79.92 150.8C79.64 150.87 79.36 150.93 79.08 151C78.72 150.25 78.36 149.5 78 148.75C79.46 147.76 78.68 144.92 78.6 143.25C78.54 141.86 77.9 139.58 78.32 138.27C78.68 137.14 79.38 137.16 79.31 135.75C79.21 133.7 78.02 132.57 77.97 130.5C78.15 130.42 78.32 130.33 78.5 130.25C78.53 129.67 78.56 129.08 78.58 128.5C78.58 128 78.58 127.5 78.58 127C78.58 126.17 78.58 125.33 78.58 124.5C78.52 124.25 78.46 124 78.4 123.75C78.46 123.67 78.52 123.58 78.58 123.5C78.56 120.58 78.53 117.67 78.5 114.75C78.73 114.99 79.09 116.48 79.66 116.38C80.74 116.17 80.53 113.5 80.41 112.84C79.63 108.81 80 104.41 80 100.25C80 97.91 79.2 96 79 93.75C78.8 91.53 79.5 89.48 79.5 87.25C79.5 80.59 79.01 74.28 77.75 68C75.91 69.92 77.31 75.22 76.75 78C76.5 74.03 76.25 70.06 76 66.08C74.52 64.46 75.06 61.01 74.97 58.75C74.73 52.83 73.52 45.2 79.36 41.57C79.59 41.54 79.83 41.51 80.06 41.48C80.01 41.27 79.96 41.05 79.92 40.84C80.03 40.72 80.14 40.61 80.25 40.5C81.17 40.54 82.08 40.57 83 40.61C83.08 40.79 83.17 40.97 83.25 41.15C84.42 41.08 85.58 41.02 86.75 40.95C86.83 40.84 86.92 40.72 87 40.61C87.27 40.6 87.53 40.6 87.8 40.59C88.78 40.6 89.77 40.6 90.75 40.61C90.83 40.46 90.92 40.32 91 40.17C92.92 40.13 94.83 40.08 96.75 40.04C96.81 39.86 96.86 39.68 96.92 39.5C104.28 39.31 111.64 39.11 119 38.92C122 38.9 125 38.89 128 38.88C128.67 38.88 129.33 38.87 130 38.87C130.33 38.86 130.67 38.86 131 38.86C131.83 38.72 132.67 38.57 133.5 38.43C145.5 38.3 157.5 38.16 169.5 38.03ZM161.5 47.25C159.26 48.99 153.74 48.8 151 48.25C152.31 46.99 153.59 47.17 155.25 48C157.1 47.07 159.58 46.3 161.5 47.25ZM151.92 49.58C149.61 49.66 147.31 49.75 145 49.83C143.28 49.12 141.31 50.01 140 48.75C142.17 48.75 144.33 48.75 146.5 48.75C146.08 48.5 145.67 48.25 145.25 48C146.75 48 148.25 48 149.75 48C148.83 48.25 147.92 48.5 147 48.75C148.64 49.03 150.28 49.3 151.92 49.58ZM83.25 51.89C84.29 53.23 82.72 56.12 86.24 54.75C86.24 53.77 86.24 52.79 86.24 51.81C88.5 52.56 88.34 53.96 88.25 56.32C86.18 56.32 84.11 56.32 82.04 56.32C81.24 54.29 80.67 52.19 83.25 51.89ZM128.5 144.06C129.84 144.81 131.61 145.27 131 147.25C129.87 146.87 128.34 145.84 127.16 145.59C125.79 145.32 126.24 146.67 125 145.75C124.84 144.92 124.97 145.07 126 144.75C125.33 144.58 124.67 144.41 124 144.24C125.5 144.18 127 144.12 128.5 144.06ZM218.5 191.13C218.32 191.25 218.14 191.38 217.95 191.5C215.9 192.82 205.92 191.59 206.5 193.25C204.67 193.25 202.83 193.25 201 193.25C200.75 192.15 200.5 191.05 200.25 189.94C196.58 189.96 189.71 192.8 186.75 190.5C185.05 192.17 182.47 191.77 180.16 191.94C174.16 192.39 168.18 193.01 162.25 193.67C160.39 193.88 156.62 194.87 155.08 193.61C155.1 193.41 155.13 193.2 155.15 193C155.24 192.35 155.32 191.7 155.41 191.05C155.61 190.98 155.8 190.92 156 190.85C156.67 190.77 157.33 190.69 158 190.61C158.33 190.46 158.67 190.3 159 190.14C159.94 190.09 160.88 190.04 161.82 189.99C162.97 189.98 164.11 189.98 165.25 189.97C165.33 189.86 165.42 189.75 165.5 189.64C165.95 189.63 166.4 189.61 166.85 189.6C167.98 189.57 169.12 189.55 170.25 189.53C170.33 189.4 170.42 189.26 170.5 189.13C171.43 189.08 172.36 189.04 173.28 189C174.36 188.95 175.43 188.91 176.5 188.86C176.67 188.86 176.83 188.85 177 188.84C177.17 188.83 177.33 188.82 177.5 188.81C178.5 188.75 179.5 188.69 180.5 188.62C180.67 188.62 180.83 188.62 181 188.62C181.14 188.58 181.28 188.54 181.42 188.5C181.44 188.38 181.47 188.25 181.5 188.13C182.5 188.08 183.5 188.04 184.5 188C185.42 188 186.33 188 187.25 188.01C187.33 187.89 187.42 187.78 187.5 187.67C188.33 187.65 189.17 187.62 190 187.6C191.17 187.52 192.33 187.43 193.5 187.34C194.5 187.27 195.5 187.21 196.5 187.14C197.83 187.03 199.17 186.91 200.5 186.79C200.57 186.7 200.63 186.6 200.7 186.5C203.24 184.41 211.19 185.47 214.75 184.42C214.78 183.36 214.8 182.31 214.83 181.25C216.13 181.16 217.44 181.07 218.75 180.98C219.6 183.42 219.97 188.98 218.5 191.13ZM209.51 188.42C207.92 188.4 206.34 188.37 204.75 188.35C204.67 188.53 204.59 188.72 204.51 188.9C202.76 188.9 201 188.89 199.25 188.88C199.17 189.04 199.08 189.2 199 189.37C198.67 189.49 198.33 189.62 198 189.75C199.02 189.81 200.03 189.88 201.05 189.94C201.18 190.28 201.32 190.61 201.45 190.95C202.88 190.83 204.32 190.72 205.75 190.61C205.81 190.43 205.88 190.24 205.94 190.06C207.56 190.02 209.18 189.99 210.79 189.96C211.01 189.95 211.22 189.94 211.44 189.93C211.84 189.81 212.25 189.69 212.65 189.56C213.25 189.12 213.85 188.69 214.45 188.25C213.74 188.17 213.03 188.09 212.33 188.01C211.81 187.99 211.3 187.97 210.78 187.95C210.61 187.89 210.43 187.83 210.25 187.77C210 187.99 209.76 188.21 209.51 188.42ZM9.63 220C10.08 220.25 10.53 220.5 10.98 220.75C12.89 222.07 19.13 226.83 18.5 229.25C16.36 228.47 10.06 222.16 9.63 220ZM10.25 225.5C11.17 226.42 12.08 227.33 13 228.25C11.63 229.56 10.58 227.09 10.25 225.5ZM20.25 228.86C23.27 228.8 21.44 230.74 22.17 232.33C22.62 233.3 23.5 233.82 24 234.75C23.36 234.68 23.98 235.13 23.34 234.88C22.88 234.69 22.54 233.3 21.88 234.26C21.55 234.75 22.67 236.4 22.2 236.78C21.56 237.3 20.54 236.77 19.75 237C19.17 236.08 18.58 235.17 18 234.25C18.75 232.45 19.5 230.66 20.25 228.86ZM15.75 229C16.5 229.92 17.25 230.83 18 231.75C17.42 232 16.83 232.25 16.25 232.5C15.63 232.33 15.02 232.17 14.4 232C14.4 231.17 14.4 230.33 14.4 229.5C14.85 229.33 15.3 229.17 15.75 229ZM220.02 259C220.26 259.17 220.51 259.33 220.75 259.5C221.18 259.53 221.62 259.56 222.05 259.58C222.97 260.91 223.12 261.67 222.86 263.25C220.22 265.49 215.08 265.17 211.75 265.61C202.45 266.84 193.1 268.01 183.76 269.14C153.81 272.78 123.54 275.67 93.77 280.46C84.87 281.9 75.72 282.96 66.75 283.83C64.01 284.09 59.91 285.55 57.3 284.47C53.32 282.84 46.99 274.3 43.81 270.93C33.13 259.57 22.73 247.82 11.47 237.05C13.46 235.46 11.54 235.24 10.5 234.25C13.19 232.17 20.58 241.45 22.58 243.66C30.22 252.1 38.09 260.08 45.81 268.41C48.6 271.43 51.83 277.28 56.03 278.24C59.87 279.11 64.26 277.71 68 276.98C75.38 275.55 83.09 275.06 90.5 273.99C119.64 269.76 148.79 266.76 178 262.96C187.86 261.68 197.82 260.68 207.75 259.93C209.83 259.77 219.2 259.51 220.02 259ZM35.25 244C33.67 242.08 32.08 240.17 30.5 238.25C32.04 238.76 36.12 243.02 35.25 244ZM211.75 238C213.29 239.76 212.39 248.92 211.89 251.25C210.15 253.02 208.04 252.15 205.84 252.59C204.12 252.94 202.48 253.71 200.73 253.98C198.12 254.39 195.45 254.09 192.84 254.59C190.86 254.98 187.1 255.99 185.5 254.75C186.59 252.66 189.19 253.89 191.23 253.48C194.34 252.86 197.63 252.51 200.77 252.02C202.81 251.7 205.02 252.41 207 251.75C210.35 250.63 213.78 246.98 210.5 243.75C210.92 241.83 211.33 239.92 211.75 238ZM209.56 240.5C209.56 243.61 209.56 246.72 209.56 249.83C206.9 249.83 204.24 249.83 201.59 249.83C200.23 247.18 200.75 243.61 201.27 240.75C203.79 238.67 206.96 238.83 209.56 240.5ZM36.75 247.5C36.15 248 30.35 241.66 29.24 240.25C31.74 242.67 34.25 245.08 36.75 247.5ZM41.5 246.75C40 245.42 38.5 244.08 37 242.75C38.09 241.77 41.95 246.2 41.5 246.75ZM193.5 245.25C192.86 247.27 189.66 247.1 187.87 247.5C187.87 246.67 187.87 245.83 187.87 245C189.75 244.21 192.28 243.39 193.5 245.25ZM31.75 245.5C33.08 246.37 35.79 249.07 35.5 250.25C34.53 248.39 31.78 247.7 31.75 245.5ZM37.75 248.5C39.17 249.92 40.58 251.33 42 252.75C40.73 252.55 37.31 249.23 37.75 248.5ZM41.75 256.5C40.17 254.75 38.58 253 37 251.25C38.58 253 40.17 254.75 41.75 256.5Z" fill="#1f1e1b" fill-rule="evenodd" stroke="#1f1e1b" stroke-width="0.25" stroke-linejoin="round"/>
<path d="M238.05 221.5C238.22 222.42 238.39 223.33 238.57 224.25C238.71 224.33 238.85 224.42 239 224.5C238.48 229.92 233.22 232.45 228.25 230.5C227.29 231.08 226.33 231.67 225.37 232.25C224.59 238.36 226.21 252.55 223.57 257.25C223.8 248.83 224.02 240.42 224.25 232C221.82 230.26 219.06 231.49 216.25 231.66C211.15 231.98 206.05 232.85 201 233.49C199.79 233.64 198.47 233.25 197.25 233.55C196.71 233.68 196.13 234.29 195.66 234.35C195.13 234.4 194.77 233.92 194.25 233.92C185.68 234 176.84 236.58 168.25 237.3C145.95 239.15 123.92 242.1 101.75 244.67C92.74 245.71 83.77 246.86 74.77 247.95C71.76 248.31 67.14 250 64.6 247.66C60.94 244.27 61.85 236.81 61.78 232.34C61.59 219.68 60.55 206.93 60.1 194.25C59.33 172.73 58.1 151.22 57.22 129.71C56.26 106.39 55.89 83.04 54.49 59.75C53.84 48.93 53.53 38.02 53.2 27.17C53.12 24.67 53.53 16.35 52.25 14.79C50.34 15.14 50.27 16.03 48.75 17.15C46.77 16.02 43.91 17.67 41.77 18.45C37.47 20 25.84 22.89 23.25 25.65C21.39 25.41 20.99 25.32 19.75 26.61C17.89 26.07 13.25 28.09 11.25 29.15C10.78 28.77 10.3 28.38 9.83 28C11.9 23.78 25.43 20.87 29.99 19.03C32.05 18.2 35.3 16.08 37.25 17C38.33 16.3 39.42 15.59 40.5 14.89C40.87 16.26 40.63 15.83 41.75 16.2C45.42 14.95 49.08 13.7 52.75 12.45C55.07 16.05 57.39 19.65 59.71 23.25C58.42 25.14 59.87 26.17 59.96 28.27C60.13 31.82 61.24 42.63 59.5 44.75C61.3 45.75 60.94 47.17 60 48.75C63.14 59.57 61.04 76.73 62.02 88.5C63 100.21 63.35 112.02 63.77 123.78C63.97 129.21 63.5 134.89 63.95 140.25C65.21 155.16 65.73 170.26 66.04 185.25C66.3 197.74 67.01 210.27 67.69 222.75C67.9 226.62 66.83 233.73 69.39 236.75C74.72 238.34 90.02 234.82 96.25 234.05C113.23 231.93 130.45 230.27 147.25 228.39C158.4 227.15 169.54 225.47 180.68 224.64C181.57 224.57 191.16 223.42 191.27 223.23C191.49 222.86 190.82 222.5 190.75 222.08C193.3 222.29 193.14 221.02 195.25 222.66C196.15 221.68 196.19 220.18 197.75 220.44C198.7 221.51 198.06 221.89 200.25 222C199.86 221.25 199.47 220.5 199.08 219.75C200.09 218.87 201.39 219.71 202.75 219.87C203 219.56 202.89 219.01 203.21 218.78C203.77 218.41 204.96 218.77 205.65 218.51C207.03 218.01 208.98 215.6 210.64 216.22C210.92 216.32 211.52 217.15 211.75 217.35C212.43 214.03 213.08 216.24 215.25 216.1C216.18 216.04 216.9 215.2 217.75 214.87C218.25 215.72 218.75 216.56 219.25 217.41C220.67 217.01 222.79 216.37 221.25 214.74C222.32 214.26 223.61 215.67 225.25 216.03C226.74 214.39 228.1 214.24 229.75 212.97C229.31 215.32 226.71 215.85 227.25 218.83C227.82 218.36 227.76 217.5 228.36 217.06C229.56 216.17 230.51 217.44 230.14 215.25C231.53 215.51 232.2 216.26 233.48 215.25C233.13 214.58 232.77 213.92 232.42 213.25C233.96 214.21 233.89 215.18 235.75 214C236.96 216.43 237.85 218.87 238.05 221.5ZM133.5 38.43C132.67 38.57 131.83 38.72 131 38.86C130.92 38.68 130.83 38.5 130.75 38.32C130.5 38.5 130.25 38.68 130 38.87C129.33 38.87 128.67 38.88 128 38.88C127.92 38.72 127.83 38.55 127.75 38.38C124.86 38.44 121.97 38.5 119.08 38.56C119.47 38.16 119.86 37.75 120.25 37.35C123.17 37.43 132.04 36.48 133.5 38.43ZM169.5 38.03C171.65 37.11 177.96 37.05 180 38.38C177.92 38.38 175.83 38.38 173.75 38.39C173.67 38.56 173.58 38.73 173.5 38.9C172.25 38.85 171 38.8 169.75 38.76C169.67 38.52 169.58 38.27 169.5 38.03ZM177 39.12C177.67 39.13 178.33 39.13 179 39.13C178.33 39.13 177.67 39.13 177 39.12ZM96.92 39.5C96.86 39.68 96.81 39.86 96.75 40.04C94.83 40.08 92.92 40.13 91 40.17C89.93 40.31 88.87 40.45 87.8 40.59C87.53 40.6 87.27 40.6 87 40.61C85.67 40.61 84.33 40.61 83 40.61C85.3 38.83 93.67 39.5 96.92 39.5ZM79.92 40.84C79.96 41.05 80.01 41.27 80.06 41.48C79.83 41.51 79.59 41.54 79.36 41.57C79.55 41.33 79.73 41.08 79.92 40.84ZM75.32 80C75.52 80.31 75.71 80.61 75.91 80.92C75.71 80.61 75.52 80.31 75.32 80ZM76.93 119.5C76.98 119.64 77.02 119.78 77.07 119.92C77.02 119.78 76.98 119.64 76.93 119.5ZM162.98 141.77C164.29 142.73 169.78 142.5 171.75 142.5C173.38 150.63 180.04 144.89 183.75 148.51C182.42 148.84 181.08 149.17 179.75 149.5C178.35 149.28 181.69 149.19 180.14 147.87C179.66 147.45 175.9 147.98 175.06 147.92C172.03 146.86 159.9 147.3 158.43 145.29C157.9 144.58 158.25 144.03 157.75 143.34C157 143.01 156.25 142.67 155.5 142.34C157.99 142.15 160.48 141.96 162.98 141.77ZM143.95 143.5C145.99 143.5 146.85 143.83 148.59 144.75C148.36 145.42 148.12 146.08 147.88 146.75C146.23 147.23 144.66 147.44 143.95 145.86C143.95 145.08 143.95 144.29 143.95 143.5ZM80.5 151.07C80.63 151.26 80.76 151.45 80.89 151.63C80.76 151.58 80.63 151.53 80.51 151.48C80.51 151.34 80.5 151.21 80.5 151.07ZM79.96 151.47C80.14 151.47 80.32 151.48 80.51 151.48C80.49 151.66 80.48 151.85 80.47 152.03C80.3 151.84 80.13 151.66 79.96 151.47ZM80.89 151.63C81.03 151.76 81.17 151.88 81.3 152C81.21 152 81.11 151.99 81.01 151.99C80.97 151.87 80.93 151.75 80.89 151.63ZM80.47 152.03C80.65 152.01 80.83 152 81.01 151.99C81.05 152.17 81.09 152.36 81.13 152.54C80.91 152.37 80.69 152.2 80.47 152.03ZM85.01 154.43C85.42 154.41 85.84 154.39 86.25 154.38C86.33 154.53 86.42 154.68 86.5 154.83C86.08 154.84 85.67 154.86 85.25 154.87C85.17 154.72 85.09 154.58 85.01 154.43ZM90.5 154.86C89.33 154.85 88.17 154.85 87 154.84C87.08 154.7 87.17 154.55 87.25 154.4C88.25 154.41 89.25 154.41 90.25 154.42C90.33 154.57 90.42 154.71 90.5 154.86ZM95.5 154.84C94.17 154.85 92.83 154.85 91.5 154.86C91.58 154.71 91.67 154.56 91.75 154.41C92.92 154.4 94.08 154.4 95.25 154.39C95.33 154.54 95.42 154.69 95.5 154.84ZM97 154.84C96.83 154.84 96.67 154.84 96.5 154.84C96.67 154.84 96.83 154.84 97 154.84ZM104.5 154.77C102.33 154.79 100.17 154.82 98 154.84C98.08 154.68 98.17 154.53 98.25 154.37C100.25 154.32 102.25 154.28 104.25 154.24C104.33 154.42 104.42 154.59 104.5 154.77ZM200.5 186.48C199 186.57 197.5 186.66 196 186.75C196.17 186.88 196.33 187.01 196.5 187.14C195.5 187.21 194.5 187.27 193.5 187.34C193.42 187.17 193.33 187 193.25 186.83C192.25 186.92 191.25 187.01 190.25 187.1C190.17 187.27 190.08 187.44 190 187.6C189.17 187.62 188.33 187.65 187.5 187.67C186.58 187.66 185.67 187.65 184.75 187.64C184.67 187.76 184.58 187.88 184.5 188C183.5 188.04 182.5 188.08 181.5 188.13C180.25 188.17 179.01 188.21 177.76 188.25C178.68 188.37 179.59 188.5 180.5 188.62C179.5 188.69 178.5 188.75 177.5 188.81C177.33 188.82 177.17 188.83 177 188.84C176.83 188.85 176.67 188.86 176.5 188.86C176.42 188.72 176.33 188.57 176.25 188.43C175.26 188.62 174.27 188.81 173.28 189C172.36 189.04 171.43 189.08 170.5 189.13C169.28 189.28 168.07 189.44 166.85 189.6C166.4 189.61 165.95 189.63 165.5 189.64C164.27 189.76 163.05 189.87 161.82 189.99C160.88 190.04 159.94 190.09 159 190.14C158.05 190.18 157.1 190.21 156.15 190.25C156.76 190.37 157.38 190.49 158 190.61C157.33 190.69 156.67 190.77 156 190.85C155.8 190.92 155.61 190.98 155.41 191.05C155.32 191.7 155.24 192.35 155.15 193C155.13 193.2 155.1 193.41 155.08 193.61C154.78 192.82 154.47 192.04 154.17 191.25C156.63 188.29 160.4 190.07 163.73 188.98C164.34 188.79 164.66 188.06 165.27 187.97C168.65 187.43 171.74 190.21 174.75 186.9C176.95 186.89 178.94 187.84 181.23 187.48C182.84 187.23 184.35 186 185.75 185.86C187.62 185.68 189.65 186.81 191.73 186.48C194.45 186.06 198.25 184.4 200.5 186.48ZM200.5 186.48C200.57 186.49 200.63 186.49 200.7 186.5C200.63 186.6 200.57 186.7 200.5 186.79C200.5 186.69 200.5 186.59 200.5 186.48ZM181 188.62C181.14 188.58 181.28 188.54 181.42 188.5C181.28 188.54 181.14 188.58 181 188.62ZM92.07 209.23C92.07 210.4 92.07 211.58 92.07 212.75C91.63 211.77 91.19 210.79 90.75 209.81C89.08 209.72 87.42 209.62 85.75 209.52C87.86 209.42 89.96 209.33 92.07 209.23ZM91.93 213.76C92.87 216 93.68 219.43 91.93 221.19C91.93 218.72 91.93 216.24 91.93 213.76ZM89.64 217.87C87.31 217.99 84.98 218.12 82.64 218.25C82.91 219.02 83.17 219.8 83.43 220.57C83.54 220.74 83.64 220.92 83.75 221.09C84.17 221.15 84.58 221.2 85 221.25C84.75 221 84.5 220.75 84.25 220.5C83.98 220.52 83.7 220.55 83.43 220.57C84.57 219.82 84.35 220.13 85.25 221.06C86.08 220.71 86.92 220.35 87.75 220C88 220.52 88.25 221.03 88.5 221.55C88.19 221.63 87.88 221.72 87.57 221.8C87.39 221.8 87.22 221.8 87.04 221.8C86.67 221.73 86.29 221.66 85.92 221.58C85.78 221.72 85.64 221.85 85.5 221.99C84.75 222.04 84 222.09 83.25 222.14C81.73 220.02 80.85 218.2 82.25 215.88C84.08 215.75 85.92 215.61 87.75 215.48C88.38 216.27 89.01 217.07 89.64 217.87ZM89.64 217.87C89.91 217.99 90.18 218.12 90.45 218.25C90.21 219.05 89.98 219.85 89.75 220.65C89.66 220.6 89.58 220.55 89.49 220.5C89.24 220.5 89 220.5 88.75 220.5C89.05 219.62 89.35 218.74 89.64 217.87Z" fill="#8d805d" fill-rule="evenodd" stroke="#8d805d" stroke-width="0.25" stroke-linejoin="round"/>
<path d="M233.7 21.92C232.53 21.09 232.52 20.82 231.75 22.23C227.32 20.49 221.47 21.39 216.75 21.45C206.74 21.58 196.76 21.73 186.75 21.67C158.76 21.49 130.75 21 102.75 21.14C93.08 21.18 83.42 20.9 73.75 20.96C69.62 20.98 65.05 21.51 61 20.75C58.91 17.52 58.33 11.05 54.5 9.76C55.76 8.4 62.57 8.09 64.75 8.09C73.52 8.08 82.3 8.56 91.25 8.64C106.11 8.77 120.94 9.02 135.75 9.06C143.42 9.08 151.08 9.04 158.75 9.02C161.53 9.02 165.04 8.44 167.75 9.03C168.73 9.24 169.24 9.86 170.25 10C173.15 10.41 175.99 9.75 178.75 9.35C185.41 8.4 193.01 9.53 199.75 9.57C206.75 9.61 213.75 9.74 220.75 9.87C223.58 9.92 226.99 9.41 229.73 10.07C234.29 11.17 234.82 18.4 233.7 21.92ZM79.08 151C79.36 150.93 79.64 150.87 79.92 150.8C79.93 151.02 79.95 151.25 79.96 151.47C80.13 151.66 80.3 151.84 80.47 152.03C80.69 152.2 80.91 152.37 81.13 152.54C81.25 152.78 81.38 153.01 81.5 153.25C82 153.42 82.5 153.58 83 153.75C83.67 153.87 84.33 154 85 154.12C85 154.22 85 154.33 85.01 154.43C85.09 154.58 85.17 154.72 85.25 154.87C85.67 154.86 86.08 154.84 86.5 154.83C86.67 154.84 86.83 154.84 87 154.84C88.17 154.85 89.33 154.85 90.5 154.86C90.83 154.86 91.17 154.86 91.5 154.86C92.83 154.85 94.17 154.85 95.5 154.84C95.83 154.84 96.17 154.84 96.5 154.84C96.67 154.84 96.83 154.84 97 154.84C97.33 154.84 97.67 154.84 98 154.84C100.17 154.82 102.33 154.79 104.5 154.77C105 154.64 105.5 154.52 106 154.39C115.07 153.34 125.11 153.32 134.25 153.39C137.34 153.41 141.95 153.68 145 152.57C145.08 152.69 145.17 152.82 145.25 152.94C146.33 152.9 147.42 152.85 148.5 152.81C149.33 152.77 150.17 152.72 151 152.68C151.5 152.7 152 152.73 152.5 152.75C153 152.56 153.5 152.38 154 152.19C155.33 152.21 156.67 152.23 158 152.25C158.17 152.07 158.33 151.9 158.5 151.72C165.5 151.17 172.5 150.62 179.5 150.07C181.79 151.61 187.9 149.88 190.75 149.67C194.07 149.44 197.94 148.9 201.25 149.42C204.39 149.92 207.53 150.7 210.76 150.78C214.18 150.86 218.74 149.96 221.6 152.25C218.04 153.25 214.14 152.98 210.47 153.25C201.56 153.91 192.67 154.55 183.75 155.13C160.94 156.59 138.09 159.17 115.25 159.97C107.81 160.23 100.15 160.64 92.75 161.48C88.52 161.96 82.3 163.32 78.3 161.75C77.16 158.2 78.41 154.53 79.08 151ZM238.15 190.5C239.44 194.74 237.33 200.9 238.02 203.23C238.21 203.89 238.74 204.14 238.98 204.77C239.67 206.58 239.52 222.34 239 224.5C238.85 224.42 238.71 224.33 238.57 224.25C238.39 223.33 238.22 222.42 238.05 221.5C237.86 219.75 237.68 218 237.5 216.25C238.25 214.19 239.32 211.75 238.48 209.27C238.19 208.41 237.58 208.24 237.5 207.25C237.3 204.76 239.14 203.33 237 201.25C239 199.18 237.06 198.79 237.03 196.75C237.02 196.1 237.74 195.82 237.92 195.23C238.38 193.74 237.62 191.88 238.15 190.5Z" fill="#e0cea6" fill-rule="evenodd" stroke="#e0cea6" stroke-width="0.25" stroke-linejoin="round"/>
<path d="M151.92 49.58C155.61 49.56 159.31 49.54 163 49.53C163.33 49.53 163.67 49.53 164 49.53C165.83 51.16 171.15 50.27 173.75 50.28C179.38 50.32 196.46 49.04 200.87 50.75C200.99 51.89 201.12 53.03 201.25 54.17C164.08 54.77 126.92 55.37 89.75 55.97C89.56 54.56 89.36 53.16 89.17 51.75C98.84 50.64 109 51.23 118.75 51.14C121.14 51.12 127.65 52.01 129 50.03C129.33 50.01 129.67 49.99 130 49.97C135 49.92 140 49.88 145 49.83C147.31 49.75 149.61 49.66 151.92 49.58ZM169.87 52.25C169.28 51.76 155.75 51.72 155.17 52.25C156.33 53.71 168.81 53.69 169.87 52.25ZM80.46 51.97C80.46 53.33 80.46 54.7 80.46 56.06C78.86 54.99 78.55 52.97 80.46 51.97ZM103.88 53.75C102.04 51.56 96.39 53.01 93.75 53.03C92.47 53.04 91.46 52.22 90.23 52.25C90.03 53.05 89.41 54.24 90.38 54.84C91.22 55.36 103.23 54.49 103.88 53.75ZM151.58 52.75C149.18 51.08 145.9 53.01 143.29 52.92C141.51 52.86 139.55 52.24 137.64 52.25C136.27 52.26 134.38 52.42 133.71 53.25C136.7 53.74 149.44 54.4 151.58 52.75ZM129.91 53.25C128.89 52.13 126.93 52.58 125.25 52.56C122.58 52.53 110.36 52.24 109.13 53.75C111.01 54.12 112.88 54.5 114.75 54.87C119.8 54.33 124.86 53.79 129.91 53.25ZM175 73.25C175.42 84.96 175.83 96.67 176.25 108.37C155.84 109.33 135.43 110.29 115.02 111.25C114.43 99.38 113.84 87.51 113.25 75.64C133.83 74.84 154.42 74.05 175 73.25ZM148 75.52C142 75.52 136 75.52 130 75.52C133.32 76.8 144.85 77.09 148 75.52ZM143.75 77C143.17 77.58 142.58 78.17 142 78.75C142.67 78.92 143.33 79.08 144 79.25C142.75 80.86 142.62 81.84 144.96 82C144.96 80.92 144.96 79.83 144.96 78.75C144.55 78.17 144.15 77.58 143.75 77ZM154 80.25C153.57 78.9 151.55 77.25 150 77.25C149.74 78.07 150.18 78.96 149.89 79.64C149.59 80.35 148.42 80.91 148 81.75C149.66 81.58 150.03 80.66 151.75 82C152.5 81.42 153.25 80.83 154 80.25ZM139.75 78C138 78.14 138.77 78.81 137.66 79.38C136.45 79.99 135.9 78.33 134.75 80C133.55 78.85 132.6 78.69 131.5 79.75C133.41 80.13 133.82 80.01 134.25 82C136.58 82 137.24 80.43 139 80.25C138.83 82.37 137.63 82.76 138.75 85C140.17 84.58 141.58 84.17 143 83.75C140.53 81.38 139.36 81.73 139.75 78ZM162.8 88.25C161.72 87.92 160.64 87.58 159.56 87.25C158.38 87.58 157.21 87.92 156.03 88.25C157.2 89.48 161.34 89.45 162.8 88.25ZM150.04 88.25C148.77 87.34 142.36 87.89 140.95 88.75C141.87 89.66 149.11 89.88 150.04 88.25ZM132.71 89.25C131.19 88.92 129.68 88.58 128.16 88.25C128.32 90.57 131.11 90.37 132.71 89.25ZM139.94 88.75C138.25 88.25 135.31 87.5 134.1 88.75C135.68 89.94 138.71 90.5 139.94 88.75ZM170.75 90.91C171.59 89.31 171.23 88.24 169.36 88.25C169.14 89.67 169.51 90.28 170.75 90.91ZM174.01 106.18C171.76 106.18 169.5 106.18 167.25 106.18C168.25 107.46 172.76 107.38 174.01 106.18ZM196.25 128.28C196.58 129.71 196.92 131.15 197.25 132.59C198.86 133.23 201.34 133.6 199.25 135.76C198.03 134.54 198.57 134.06 196.25 134.17C196.42 134.69 196.58 135.22 196.75 135.74C195.25 135.74 193.75 135.74 192.25 135.74C191.9 132.81 193.25 134.27 194.29 132.56C195.25 130.98 194.9 129.78 196.25 128.28Z" fill="#dae6eb" fill-rule="evenodd" stroke="#dae6eb" stroke-width="0.25" stroke-linejoin="round"/>
<path d="M148 75.52C144.85 77.09 133.32 76.8 130 75.52C136 75.52 142 75.52 148 75.52ZM143.75 77C144.15 77.58 144.55 78.17 144.96 78.75C144.96 79.83 144.96 80.92 144.96 82C142.62 81.84 142.75 80.86 144 79.25C143.33 79.08 142.67 78.92 142 78.75C142.58 78.17 143.17 77.58 143.75 77ZM154 80.25C153.25 80.83 152.5 81.42 151.75 82C150.03 80.66 149.66 81.58 148 81.75C148.42 80.91 149.59 80.35 149.89 79.64C150.18 78.96 149.74 78.07 150 77.25C151.55 77.25 153.57 78.9 154 80.25ZM139.75 78C139.36 81.73 140.53 81.38 143 83.75C141.58 84.17 140.17 84.58 138.75 85C137.63 82.76 138.83 82.37 139 80.25C137.24 80.43 136.58 82 134.25 82C133.82 80.01 133.41 80.13 131.5 79.75C132.6 78.69 133.55 78.85 134.75 80C135.9 78.33 136.45 79.99 137.66 79.38C138.77 78.81 138 78.14 139.75 78Z" fill="#ffffff" fill-rule="evenodd" stroke="#ffffff" stroke-width="0.25" stroke-linejoin="round"/>
</svg>